<svg width="398" height="138" viewBox="0 0 398 138" fill="none" xmlns="http://www.w3.org/2000/svg">
<path d="M42.3957 64.7524H45.3866C46.5613 64.7527 47.7081 64.393 48.6729 63.7217C49.6377 63.0504 50.3745 62.0996 50.7843 60.9968L57.6228 42.596V32.4609C57.6214 30.7804 56.9557 29.1688 55.7714 27.9785C54.5871 26.7881 52.9805 26.1159 51.3027 26.1086H26.7429V26.3109C28.1026 26.6645 29.3067 27.4603 30.166 28.5734C31.0254 29.6864 31.4915 31.0538 31.4912 32.4609V100.739C31.4906 102.146 31.0241 103.513 30.1649 104.626C29.3057 105.739 28.1022 106.535 26.7429 106.889V107.092H51.3027C52.9852 107.092 54.5989 106.422 55.7891 105.231C56.9793 104.04 57.6486 102.425 57.6501 100.739V90.6479L50.757 72.2089C50.3534 71.1059 49.6213 70.1537 48.6599 69.4811C47.6984 68.8084 46.5539 68.4477 45.3811 68.4478H42.3957C41.9065 68.4478 41.4373 68.2532 41.0913 67.9066C40.7453 67.5601 40.551 67.0901 40.551 66.6001C40.551 66.1101 40.7453 65.6401 41.0913 65.2936C41.4373 64.947 41.9065 64.7524 42.3957 64.7524Z" fill="white"/>
<path d="M51.3027 107.343H26.7429C26.6773 107.342 26.6148 107.314 26.5689 107.267C26.523 107.22 26.4973 107.157 26.4973 107.092V106.889C26.4969 106.834 26.5149 106.78 26.5486 106.737C26.5822 106.693 26.6295 106.662 26.6829 106.649C27.9891 106.307 29.1453 105.541 29.9701 104.471C30.7948 103.4 31.2415 102.086 31.2401 100.734V32.4609C31.2412 31.1094 30.7943 29.7958 29.9695 28.7262C29.1447 27.6567 27.9887 26.8917 26.6829 26.5514C26.6295 26.538 26.5822 26.5069 26.5486 26.4633C26.5149 26.4197 26.4969 26.366 26.4973 26.3109V26.1086C26.4966 26.0759 26.5024 26.0433 26.5144 26.0128C26.5264 25.9823 26.5444 25.9546 26.5673 25.9312C26.5902 25.9077 26.6175 25.8891 26.6476 25.8764C26.6778 25.8637 26.7102 25.8572 26.7429 25.8572H51.3027C53.0513 25.8586 54.728 26.5547 55.965 27.7926C57.202 29.0306 57.8982 30.7094 57.9011 32.4609V42.5742C57.9069 42.6031 57.9069 42.6328 57.9011 42.6616L51.0244 61.0624C50.5952 62.2145 49.8258 63.2083 48.8186 63.9115C47.8114 64.6146 46.6142 64.9937 45.3865 64.9984H42.3957C41.9716 64.9984 41.5648 65.1671 41.265 65.4675C40.9651 65.7679 40.7966 66.1753 40.7966 66.6001C40.7966 67.0249 40.9651 67.4323 41.265 67.7327C41.5648 68.0331 41.9716 68.2018 42.3957 68.2018H45.3865C46.6086 68.2069 47.8001 68.5854 48.8016 69.2868C49.8032 69.9881 50.5673 70.979 50.9916 72.1269L57.852 90.5604C57.8567 90.5894 57.8567 90.6189 57.852 90.6479V100.734C57.8506 102.478 57.1617 104.151 55.9352 105.388C54.7087 106.626 53.0438 107.329 51.3027 107.343ZM27.6598 106.846H51.3027C52.9201 106.843 54.4705 106.198 55.6141 105.052C56.7578 103.907 57.4016 102.354 57.4045 100.734V90.6971L50.5277 72.2963C50.1399 71.2427 49.4394 70.3333 48.5203 69.6903C47.6012 69.0472 46.5076 68.7014 45.3865 68.6993H42.3957C41.8399 68.6993 41.3068 68.4781 40.9138 68.0844C40.5207 67.6908 40.2999 67.1568 40.2999 66.6001C40.2999 66.0434 40.5207 65.5094 40.9138 65.1157C41.3068 64.7221 41.8399 64.5009 42.3957 64.5009H45.3865C46.5095 64.4982 47.6049 64.1532 48.5272 63.5116C49.4495 62.87 50.1549 61.9623 50.5496 60.9093L57.3827 42.5304V32.4609C57.3798 30.8451 56.7388 29.2961 55.5997 28.1521C54.4606 27.008 52.9158 26.3619 51.3027 26.3546H27.638C28.8444 26.8543 29.8757 27.7012 30.6014 28.7882C31.3271 29.8751 31.7146 31.1533 31.7149 32.4609V100.734C31.7157 102.042 31.3287 103.322 30.6029 104.41C29.8771 105.498 28.8452 106.345 27.638 106.846H27.6598Z" fill="#3C3C3B"/>
<path d="M68.4618 26.1088C67.0796 26.1084 65.7303 26.5314 64.5949 27.3209C63.4594 28.1103 62.592 29.2286 62.109 30.5258L57.6282 42.5524L50.7897 60.975C50.3799 62.0778 49.6432 63.0287 48.6783 63.7C47.7135 64.3713 46.5667 64.7309 45.392 64.7306H73.4284C74.6762 64.7288 75.8938 64.3458 76.9187 63.6327C77.9436 62.9197 78.727 61.9106 79.1644 60.74L90.6748 29.848C90.9585 29.0538 91.416 28.3333 92.0137 27.7393C92.6115 27.1452 93.3345 26.6927 94.1296 26.4149V26.0869L68.4618 26.1088Z" fill="url(#paint0_linear_9_35)"/>
<path d="M73.4229 64.9984H45.3865C45.3508 65.0037 45.3144 65.0013 45.2798 64.9912C45.2451 64.9812 45.213 64.9637 45.1857 64.9401C45.1583 64.9165 45.1364 64.8873 45.1214 64.8544C45.1064 64.8216 45.0986 64.7858 45.0986 64.7497C45.0986 64.7136 45.1064 64.6778 45.1214 64.645C45.1364 64.6121 45.1583 64.5829 45.1857 64.5593C45.213 64.5357 45.2451 64.5182 45.2798 64.5082C45.3144 64.4981 45.3508 64.4957 45.3865 64.501C46.5095 64.4983 47.6049 64.1532 48.5272 63.5117C49.4495 62.8701 50.1549 61.9624 50.5496 60.9094L61.8798 30.4383C62.3829 29.0957 63.2821 27.9383 64.4578 27.12C65.6336 26.3017 67.0301 25.8612 68.4619 25.8572H94.1132C94.1464 25.8565 94.1794 25.8625 94.2102 25.8749C94.241 25.8872 94.2689 25.9057 94.2924 25.9292C94.3159 25.9527 94.3343 25.9808 94.3467 26.0116C94.359 26.0424 94.365 26.0755 94.3643 26.1087V26.4367C94.3637 26.4886 94.3472 26.539 94.3169 26.5811C94.2866 26.6232 94.244 26.6549 94.1951 26.6718C93.4365 26.9405 92.7466 27.3739 92.1748 27.9409C91.603 28.508 91.1635 29.1946 90.8877 29.9518L79.3828 60.8492C78.9254 62.0638 78.1108 63.1107 77.0466 63.8516C75.9825 64.5924 74.7189 64.9923 73.4229 64.9984ZM47.7716 64.501H73.4229C74.6193 64.4977 75.7863 64.1299 76.769 63.4464C77.7517 62.7628 78.5034 61.796 78.9243 60.6743L90.4347 29.7823C90.7075 29.0209 91.1336 28.3237 91.6866 27.7341C92.2396 27.1445 92.9076 26.6749 93.6493 26.3547H68.4619C67.1308 26.3577 65.8324 26.7669 64.7393 27.5277C63.6463 28.2885 62.8107 29.3648 62.3437 30.6132L51.0244 61.0624C50.7409 61.8267 50.3062 62.5258 49.7463 63.1176C49.1864 63.7094 48.5128 64.1818 47.7661 64.5064L47.7716 64.501Z" fill="#3C3C3B"/>
<path d="M90.6475 103.319L79.3173 72.8703C78.8312 71.5747 77.9633 70.4578 76.8286 69.6679C75.6939 68.878 74.3463 68.4525 72.9645 68.4478H45.3865C46.5584 68.4488 47.7017 68.81 48.6621 69.4826C49.6225 70.1552 50.3537 71.1067 50.7569 72.2088L57.6228 90.6478L62.2619 103.101C62.698 104.272 63.4811 105.282 64.5062 105.996C65.5314 106.709 66.7497 107.091 67.9979 107.091H94.1187V106.763C93.3236 106.479 92.6005 106.023 92.0007 105.428C91.4009 104.833 90.939 104.113 90.6475 103.319Z" fill="url(#paint1_linear_9_35)"/>
<path d="M94.1241 107.343H68.0034C66.7057 107.338 65.4401 106.939 64.3747 106.196C63.3092 105.454 62.4943 104.405 62.0381 103.188L50.5277 72.2964C50.1399 71.2428 49.4394 70.3334 48.5203 69.6903C47.6012 69.0473 46.5077 68.7015 45.3866 68.6994C45.3204 68.698 45.2574 68.671 45.2106 68.6242C45.1638 68.5773 45.1369 68.5142 45.1355 68.4479C45.1369 68.3822 45.164 68.3196 45.2109 68.2736C45.2579 68.2276 45.3209 68.2019 45.3866 68.2019H72.9645C74.3968 68.2063 75.7939 68.6469 76.9704 69.465C78.1469 70.2832 79.0473 71.4404 79.552 72.783L90.8768 103.254C91.1585 104.012 91.6032 104.699 92.1795 105.266C92.7558 105.833 93.4495 106.266 94.2115 106.534C94.2603 106.55 94.3026 106.582 94.3321 106.624C94.3616 106.667 94.3767 106.717 94.3752 106.769V107.097C94.3738 107.163 94.3467 107.225 94.2998 107.271C94.2528 107.317 94.1898 107.343 94.1241 107.343ZM47.7607 68.6994C48.5035 69.0208 49.1731 69.4905 49.7286 70.0799C50.2841 70.6692 50.7139 71.3657 50.9917 72.127L62.502 103.014C62.9236 104.135 63.6755 105.101 64.658 105.785C65.6405 106.468 66.8072 106.836 68.0034 106.84H93.6548C92.912 106.518 92.2419 106.049 91.6848 105.461C91.1277 104.873 90.695 104.178 90.4129 103.418L79.0826 72.9579C78.6157 71.7094 77.78 70.6331 76.687 69.8723C75.594 69.1116 74.2955 68.7024 72.9645 68.6994H47.7607Z" fill="#3C3C3B"/>
<path d="M120.07 39.7043V51.638H117.341V41.9511H111.965V51.638H109.237V39.7043H120.07Z" fill="#010101"/>
<path d="M133.835 44.0339C133.835 46.6907 131.843 48.3471 128.661 48.3471H126.259V51.6271H123.503V39.7043H128.661C131.843 39.7043 133.835 41.3553 133.835 44.0339ZM131.04 44.0339C131.04 42.7219 130.189 41.9511 128.508 41.9511H126.259V46.0949H128.508C130.189 46.0949 131.04 45.3295 131.04 44.0339Z" fill="#010101"/>
<path d="M136.231 39.7043H138.959V47.4779L144.646 39.7043H147.233V51.638H144.505V43.8809L138.834 51.638H136.231V39.7043Z" fill="#010101"/>
<path d="M167.591 39.7043V51.638H164.862V41.9511H159.481V51.638H156.752V39.7043H167.591Z" fill="#010101"/>
<path d="M170.221 45.6684C170.221 42.126 172.978 39.4966 176.743 39.4966C180.509 39.4966 183.26 42.0932 183.26 45.6684C183.26 49.2436 180.487 51.8403 176.743 51.8403C172.999 51.8403 170.221 49.1999 170.221 45.6684ZM180.471 45.6684C180.453 44.9342 180.219 44.2217 179.798 43.62C179.378 43.0183 178.789 42.5543 178.107 42.2859C177.424 42.0175 176.678 41.9567 175.961 42.1111C175.244 42.2655 174.589 42.6282 174.076 43.1539C173.564 43.6795 173.218 44.3448 173.082 45.0664C172.946 45.7881 173.025 46.534 173.309 47.2108C173.594 47.8877 174.072 48.4654 174.682 48.8717C175.293 49.278 176.01 49.4948 176.743 49.4951C177.244 49.5086 177.743 49.4181 178.207 49.2293C178.672 49.0405 179.093 48.7576 179.443 48.3982C179.793 48.0388 180.065 47.6108 180.242 47.141C180.419 46.6712 180.497 46.1699 180.471 45.6684Z" fill="#010101"/>
<path d="M198.116 49.3856V54.1197H195.567V51.6378H187.157V54.1197H184.602V49.3965H185.077C186.627 49.3473 187.02 46.7889 187.14 43.4488L187.277 39.7151H196.479V49.3856H198.116ZM188.401 49.3856H193.75V41.9509H189.662L189.613 43.6948C189.487 46.2313 189.214 48.418 188.401 49.3856Z" fill="#010101"/>
<path d="M213.398 49.3856V54.1197H210.843V51.6378H202.417V54.1197H199.862V49.3965H200.337C201.887 49.3473 202.275 46.7889 202.395 43.4488L202.531 39.7151H211.689V49.3856H213.398ZM203.677 49.3856H209.004V41.9509H204.922L204.867 43.6948C204.752 46.2313 204.48 48.418 203.661 49.3856H203.677Z" fill="#010101"/>
<path d="M225.028 49.4186V51.638H215.804V39.7043H224.81V41.9183H218.544V44.5095H224.078V46.6579H218.544V49.4186H225.028Z" fill="#010101"/>
<path d="M238.197 44.0339C238.197 46.6907 236.205 48.3471 233.024 48.3471H230.622V51.6271H227.866V39.7043H233.045C236.205 39.7043 238.197 41.3553 238.197 44.0339ZM235.409 44.0339C235.409 42.7219 234.557 41.9511 232.871 41.9511H230.622V46.0949H232.871C234.557 46.0949 235.409 45.3295 235.409 44.0339Z" fill="#010101"/>
<path d="M251.105 46.8273H249.369V51.6379H246.641V46.8273H244.872L242.198 51.6379H239.049L242.613 45.3732L239.256 39.6824H242.171L244.84 44.504H246.69V39.7042H249.419V44.5258H251.187L253.878 39.7042H256.787L253.403 45.3732L256.961 51.6161H253.785L251.105 46.8273Z" fill="#010101"/>
<path d="M263.876 46.8274H261.971V51.638H259.242V39.7043H261.971V44.5259H263.947L267.08 39.7043H269.989L266.092 45.4662L270.109 51.638H266.976L263.876 46.8274Z" fill="#010101"/>
<path d="M281.576 49.4186V51.638H272.341V39.7043H281.346V41.9183H275.07V44.5095H280.604V46.6579H275.07V49.4186H281.576Z" fill="#010101"/>
<path d="M120.07 60.166V72.1052H117.341V62.4183H111.965V72.1052H109.237V60.166H120.07Z" fill="#010101"/>
<path d="M133.835 64.5065C133.835 67.1688 131.843 68.8252 128.661 68.8252H126.259V72.1052H123.503V60.166H128.661C131.843 60.166 133.835 61.8224 133.835 64.5065ZM131.04 64.5065C131.04 63.1945 130.189 62.4292 128.508 62.4292H126.259V66.5729H128.508C130.189 66.562 131.04 65.7967 131.04 64.5065Z" fill="#010101"/>
<path d="M145.454 69.8857V72.1052H136.231V60.166H145.236V62.3855H138.97V64.9767H144.505V67.1251H138.97V69.8584L145.454 69.8857Z" fill="#010101"/>
<path d="M157.51 68.7594C157.51 71.0117 155.06 72.3073 152.2 72.3073C150.534 72.3099 148.897 71.8805 147.446 71.0609L148.298 69.082C149.381 69.7194 150.616 70.0553 151.872 70.055C153.439 70.055 154.716 69.4756 154.716 68.3658C154.716 67.4638 153.903 67.021 152.658 67.021H149.749V64.9437H152.451C153.575 64.9437 154.225 64.4463 154.225 63.6645C154.225 62.6915 153.166 62.1776 151.823 62.1776C150.703 62.1884 149.603 62.4817 148.625 63.0304L147.79 60.882C149.056 60.2417 150.454 59.9084 151.872 59.9089C154.634 59.9089 157.014 61.1717 157.014 63.3365C157.014 63.884 156.851 64.4189 156.544 64.8722C156.237 65.3254 155.802 65.676 155.294 65.8785C155.927 66.0513 156.485 66.4262 156.885 66.9462C157.285 67.4663 157.505 68.103 157.51 68.7594Z" fill="#010101"/>
<path d="M160.228 60.166H162.957V67.9396L168.644 60.166H171.236V72.1052H168.508V64.3425L162.826 72.1052H160.223L160.228 60.166Z" fill="#010101"/>
<path d="M187.037 69.8529V74.5761H184.471V72.1052H176.072V74.5761H173.518V69.8529H173.993C175.543 69.7982 175.93 67.2453 176.05 63.8997L176.187 60.166H185.345V69.8529H187.037ZM177.316 69.8529H182.643V62.4183H178.561L178.506 64.1567C178.408 66.6932 178.135 68.8799 177.316 69.8529Z" fill="#010101"/>
<path d="M198.662 69.8857V72.1052H189.438V60.166H198.443V62.3855H192.2V64.9767H197.734V67.1251H192.2V69.8584L198.662 69.8857Z" fill="#010101"/>
<path d="M212.448 60.166V72.1052H209.692V67.1852H204.278V72.1052H201.521V60.166H204.278V64.8728H209.692V60.166H212.448Z" fill="#010101"/>
<path d="M225.072 62.4183H221.251V72.1052H218.522V62.4183H214.702V60.166H225.033L225.072 62.4183Z" fill="#010101"/>
<path d="M226.403 66.1463C226.403 62.5492 229.159 59.9745 232.871 59.9745C233.796 59.9337 234.718 60.1028 235.568 60.4691C236.419 60.8355 237.176 61.3896 237.783 62.09L236.014 63.73C235.65 63.2884 235.192 62.9336 234.674 62.6915C234.156 62.4495 233.59 62.3261 233.018 62.3306C232.005 62.3306 231.033 62.7337 230.317 63.4514C229.6 64.169 229.198 65.1423 229.198 66.1572C229.198 67.1721 229.6 68.1454 230.317 68.8631C231.033 69.5807 232.005 69.9839 233.018 69.9839C233.592 69.9883 234.159 69.8633 234.677 69.6182C235.196 69.3731 235.653 69.0142 236.014 68.568L237.783 70.208C237.179 70.913 236.423 71.4713 235.572 71.8407C234.721 72.21 233.797 72.3808 232.871 72.34C229.159 72.3072 226.403 69.7324 226.403 66.1463Z" fill="#010101"/>
<path d="M244.719 67.2945H242.809V72.1052H240.08V60.166H242.809V64.9931H244.785L247.918 60.166H250.827L246.93 65.9279L250.947 72.1052H247.814L244.719 67.2945Z" fill="#010101"/>
<path d="M251.793 66.1465C251.793 62.5986 254.522 59.9746 258.309 59.9746C262.097 59.9746 264.831 62.5822 264.831 66.1465C264.831 69.7107 262.053 72.3183 258.309 72.3183C254.565 72.3183 251.793 69.6834 251.793 66.1465ZM262.037 66.1465C262.019 65.4122 261.785 64.6997 261.364 64.098C260.943 63.4964 260.355 63.0323 259.673 62.7639C258.99 62.4955 258.244 62.4347 257.527 62.5891C256.81 62.7435 256.154 63.1062 255.642 63.6319C255.13 64.1576 254.784 64.8229 254.648 65.5445C254.511 66.2661 254.59 67.012 254.875 67.6889C255.16 68.3657 255.637 68.9434 256.248 69.3497C256.859 69.756 257.576 69.9729 258.309 69.9731C258.81 69.9866 259.309 69.8961 259.773 69.7073C260.238 69.5186 260.658 69.2356 261.008 68.8762C261.358 68.5168 261.631 68.0888 261.808 67.619C261.985 67.1493 262.063 66.6479 262.037 66.1465Z" fill="#010101"/>
<path d="M275.856 62.4183H270.185V72.1052H267.456V60.166H275.867L275.856 62.4183Z" fill="#010101"/>
<path d="M277.155 66.1465C277.155 62.5986 279.911 59.9746 283.671 59.9746C287.432 59.9746 290.221 62.5822 290.221 66.1465C290.221 69.7107 287.443 72.3183 283.671 72.3183C279.9 72.3183 277.155 69.6834 277.155 66.1465ZM287.399 66.1465C287.381 65.4122 287.147 64.6997 286.726 64.098C286.306 63.4964 285.717 63.0323 285.035 62.7639C284.352 62.4955 283.606 62.4347 282.889 62.5891C282.172 62.7435 281.517 63.1062 281.004 63.6319C280.492 64.1576 280.146 64.8229 280.01 65.5445C279.874 66.2661 279.953 67.012 280.237 67.6889C280.522 68.3657 281 68.9434 281.61 69.3497C282.221 69.756 282.938 69.9729 283.671 69.9731C284.172 69.9866 284.671 69.8961 285.135 69.7073C285.6 69.5186 286.02 69.2356 286.371 68.8762C286.721 68.5168 286.993 68.0888 287.17 67.619C287.347 67.1493 287.425 66.6479 287.399 66.1465Z" fill="#010101"/>
<path d="M306.725 71.3342V72.6298H304.187V71.3178C300.154 71.0773 297.943 69.2186 297.943 66.1026C297.943 62.9867 300.154 61.1225 304.187 60.882V59.6575H306.725V60.8656C310.742 61.1061 312.958 62.9812 312.958 66.1026C312.958 69.2241 310.758 71.132 306.725 71.3342ZM304.187 69.1476V63.0249C301.769 63.2491 300.612 64.2221 300.612 66.0808C300.612 67.9394 301.889 68.9289 304.187 69.1694V69.1476ZM310.3 66.0644C310.3 64.2221 309.094 63.2327 306.725 63.0249V69.1476C309.126 68.9508 310.3 67.9394 310.3 66.0862V66.0644Z" fill="#010101"/>
<path d="M314.999 66.1465C314.999 62.5986 317.755 59.9746 321.515 59.9746C325.276 59.9746 328.037 62.5822 328.037 66.1465C328.037 69.7107 325.281 72.3074 321.515 72.3074C317.749 72.3074 314.999 69.6834 314.999 66.1465ZM325.243 66.1465C325.225 65.4122 324.991 64.6997 324.57 64.098C324.15 63.4964 323.561 63.0323 322.879 62.7639C322.196 62.4955 321.45 62.4347 320.733 62.5891C320.016 62.7435 319.36 63.1062 318.848 63.6319C318.336 64.1576 317.99 64.8229 317.854 65.5445C317.717 66.2661 317.796 67.012 318.081 67.6889C318.366 68.3657 318.843 68.9434 319.454 69.3497C320.065 69.756 320.782 69.9729 321.515 69.9731C322.016 69.9866 322.515 69.8961 322.979 69.7073C323.444 69.5186 323.864 69.2356 324.214 68.8762C324.565 68.5168 324.837 68.0888 325.014 67.619C325.191 67.1493 325.269 66.6479 325.243 66.1465Z" fill="#010101"/>
<path d="M341.6 60.166V72.1052H338.871V67.1852H333.457V72.1052H330.695V60.166H333.457V64.8728H338.871V60.166H341.6Z" fill="#010101"/>
<path d="M357.405 69.8529V74.5761H354.851V72.1052H346.441V74.5761H343.887V69.8529H344.383C345.928 69.7982 346.321 67.2453 346.441 63.8997L346.577 60.166H355.735V69.8529H357.405ZM347.685 69.8529H353.012V62.4183H348.924L348.875 64.1567C348.749 66.6932 348.498 68.8799 347.685 69.8529Z" fill="#010101"/>
<path d="M368.506 69.5468H362.972L361.919 72.1052H359.119L364.429 60.166H367.158L372.485 72.1052H369.592L368.506 69.5468ZM367.639 67.4476L365.745 62.8665L363.856 67.4367L367.639 67.4476Z" fill="#010101"/>
<path d="M113.832 87.7561H111.927V92.5667H109.198V80.6331H111.927V85.4546H113.897L117.03 80.6331H119.945L116.042 86.373L120.07 92.5667H116.943L113.832 87.7561Z" fill="#010101"/>
<path d="M133.715 80.6331L128.639 90.0794C127.651 91.9217 126.237 92.8401 124.638 92.8401C123.972 92.8324 123.313 92.6931 122.701 92.4301L123.361 90.3309C123.746 90.464 124.149 90.5395 124.556 90.555C124.896 90.5484 125.228 90.4499 125.516 90.2699C125.804 90.0899 126.038 89.8352 126.194 89.5328L126.297 89.3961L121.598 80.6495H124.546L127.711 87.0618L130.986 80.6495L133.715 80.6331Z" fill="#010101"/>
<path d="M145.754 80.6331V92.5667H143.025V82.8798H138.943L138.856 85.3726C138.703 90.063 138.043 92.7526 135.248 92.7526C134.79 92.7435 134.334 92.6811 133.889 92.5667L134.058 90.2325C134.218 90.2784 134.384 90.3005 134.55 90.2981C135.947 90.2981 136.307 88.5269 136.422 85.4765L136.596 80.6331H145.754Z" fill="#010101"/>
<path d="M159.47 88.4066C159.47 91.14 157.63 92.5667 154.558 92.5667H149.176V80.6331H151.905V84.5526H154.94C157.838 84.5526 159.47 85.8264 159.47 88.4066ZM156.697 88.4558C156.697 87.1438 155.846 86.5972 154.416 86.5972H151.927V90.5222H154.416C155.829 90.5222 156.697 89.8061 156.697 88.4558Z" fill="#010101"/>
<path d="M170.041 82.8798H166.221V92.5667H163.492V82.8798H159.672V80.6331H170.003L170.041 82.8798Z" fill="#010101"/>
<path d="M183.757 80.6331L178.686 90.0794C177.698 91.9217 176.285 92.8401 174.686 92.8401C174.018 92.8319 173.358 92.6926 172.743 92.4301L173.409 90.3309C173.792 90.4636 174.193 90.5391 174.598 90.555C174.943 90.5537 175.282 90.4577 175.576 90.2775C175.87 90.0973 176.11 89.8397 176.269 89.5328L176.372 89.3961L171.673 80.6495H174.648L177.813 87.0618L181.088 80.6495L183.757 80.6331Z" fill="#010101"/>
<path d="M196.288 84.9626C196.288 87.6249 194.301 89.2758 191.114 89.2758H188.718V92.5558H185.956V80.6331H191.114C194.295 80.6331 196.288 82.284 196.288 84.9626ZM193.499 84.9626C193.499 83.6506 192.647 82.8798 190.961 82.8798H188.718V87.0236H190.961C192.658 87.0236 193.499 86.2582 193.499 84.9626Z" fill="#010101"/>
<path d="M209.615 80.6331V92.5667H206.848V87.6468H201.445V92.5667H198.689V80.6331H201.445V85.3398H206.848V80.6331H209.615Z" fill="#010101"/>
<path d="M223.325 88.4066C223.325 91.14 221.486 92.5667 218.413 92.5667H213.032V80.6331H215.761V84.5526H218.79C221.693 84.5526 223.325 85.8264 223.325 88.4066ZM220.553 88.4558C220.553 87.1438 219.701 86.5972 218.271 86.5972H215.788V90.5222H218.271C219.685 90.5222 220.553 89.8061 220.553 88.4558ZM224.859 80.6331H227.588V92.5667H224.859V80.6331Z" fill="#010101"/>
<path d="M233.286 80.6331L235.758 84.2465L238.225 80.6331H241.456L237.493 86.373L241.778 92.5667H238.503L235.774 88.6089L233.045 92.5667H229.864L234.121 86.4605L230.136 80.6331H233.286Z" fill="#010101"/>
<path d="M249.964 80.6331H252.693V88.4066L258.375 80.6331H260.962V92.5667H258.233V84.8096L252.551 92.5667H249.964V80.6331Z" fill="#010101"/>
<path d="M275.321 80.6331V92.5667H272.592V87.6468H267.178V92.5667H264.422V80.6331H267.178V85.3398H272.592V80.6331H275.321Z" fill="#010101"/>
<path d="M278.754 80.6331H281.483V88.4066L287.164 80.6331H289.757V92.5667H287.028V84.8096L281.346 92.5667H278.743L278.754 80.6331Z" fill="#010101"/>
<path d="M305.682 90.3145V95.1197H303.145V92.5941H293.19V80.6331H295.919V90.3145H301.267V80.6331H303.996V90.3145H305.682Z" fill="#010101"/>
<path d="M308.089 80.6331H310.818V88.4066L316.505 80.6331H319.092V92.5667H316.363V84.8096L310.676 92.5667H308.089V80.6331Z" fill="#010101"/>
<path d="M330.739 90.0084H325.21L324.151 92.5667H321.33L326.64 80.6331H329.369L334.696 92.5667H331.803L330.739 90.0084ZM329.871 87.9146L328.01 83.3445L326.122 87.9146H329.871Z" fill="#010101"/>
<path d="M344.667 82.8798H340.847V92.5667H338.118V82.8798H334.325V80.6331H344.656L344.667 82.8798Z" fill="#010101"/>
<path d="M346.937 80.6331H349.666V88.4066L355.353 80.6331H357.94V92.5667H355.211V84.8096L349.524 92.5667H346.921L346.937 80.6331Z" fill="#010101"/>
<path d="M371.879 89.2102C371.879 91.2876 370.242 92.5667 367.246 92.5667H361.373V80.6331H366.924C369.68 80.6331 371.317 81.7264 371.317 83.7162C371.327 84.2725 371.173 84.8194 370.873 85.2875C370.572 85.7556 370.14 86.1239 369.631 86.3457C370.283 86.4807 370.866 86.8423 371.277 87.3665C371.689 87.8907 371.902 88.5438 371.879 89.2102ZM364.113 85.5749H366.683C367.879 85.5749 368.506 85.0829 368.506 84.1262C368.506 83.1696 367.879 82.6776 366.683 82.6776H364.113V85.5749ZM369.085 88.9861C369.085 87.9802 368.425 87.5046 367.147 87.5046H364.113V90.5222H367.147C368.425 90.5222 369.085 90.0248 369.085 88.9861Z" fill="#010101"/>
<defs>
<linearGradient id="paint0_linear_9_35" x1="69.7553" y1="24.0041" x2="69.7553" y2="64.5502" gradientUnits="userSpaceOnUse">
<stop offset="0.04" stop-color="#3C61AA"/>
<stop offset="0.06" stop-color="#3878BB"/>
<stop offset="0.1" stop-color="#3590CC"/>
<stop offset="0.14" stop-color="#32A1D8"/>
<stop offset="0.18" stop-color="#31ABE0"/>
<stop offset="0.23" stop-color="#30AEE2"/>
<stop offset="0.37" stop-color="#3399D3"/>
<stop offset="0.61" stop-color="#387ABC"/>
<stop offset="0.81" stop-color="#3B68AF"/>
<stop offset="0.96" stop-color="#3C61AA"/>
</linearGradient>
<linearGradient id="paint1_linear_9_35" x1="69.7553" y1="108.655" x2="69.7553" y2="68.497" gradientUnits="userSpaceOnUse">
<stop offset="0.09" stop-color="#E94B4D"/>
<stop offset="0.13" stop-color="#DC4344"/>
<stop offset="0.2" stop-color="#CC393A"/>
<stop offset="0.28" stop-color="#C33334"/>
<stop offset="0.4" stop-color="#C03132"/>
<stop offset="0.62" stop-color="#D6373B"/>
<stop offset="0.84" stop-color="#E83B42"/>
<stop offset="0.88" stop-color="#E33A41"/>
<stop offset="0.92" stop-color="#D6383D"/>
<stop offset="0.97" stop-color="#C03336"/>
<stop offset="1" stop-color="#A92F2F"/>
</linearGradient>
</defs>
</svg>
