<svg width="22" height="13" viewBox="0 0 22 13" fill="none" xmlns="http://www.w3.org/2000/svg">
<path d="M21.1367 0.571114H17.5667C17.421 0.571113 17.278 0.612255 17.153 0.690162C17.0279 0.768068 16.9255 0.879824 16.8566 1.01354C16.8566 1.01354 15.4327 3.74442 14.9754 4.66424C13.7449 7.13865 12.9482 6.36184 12.9482 5.21345V1.25376C12.9482 0.92288 12.822 0.605548 12.5973 0.371578C12.3726 0.137608 12.0679 0.00616442 11.7502 0.00616442H9.06601C8.70047 -0.0221399 8.33405 0.0473462 8.00155 0.208023C7.66905 0.368701 7.38152 0.615234 7.16625 0.924207C7.16625 0.924207 8.52924 0.694702 8.52924 2.60728C8.52924 3.08155 8.5527 4.44589 8.57407 5.59021C8.5781 5.75884 8.53235 5.9247 8.44299 6.06539C8.35364 6.20608 8.22498 6.31484 8.0744 6.37696C7.92381 6.43909 7.75854 6.4516 7.60091 6.41281C7.44328 6.37402 7.30087 6.28579 7.19292 6.16003C6.09424 4.56867 5.18417 2.84492 4.48248 1.02624C4.42222 0.890189 4.32575 0.774998 4.20451 0.694328C4.08328 0.613658 3.94238 0.570896 3.79851 0.571114C3.02428 0.571114 1.47499 0.571114 0.554909 0.571114C0.465689 0.570481 0.377655 0.592416 0.29837 0.635033C0.219086 0.67765 0.150921 0.739675 0.0997321 0.815779C0.0485432 0.891884 0.0158607 0.979793 0.0044924 1.07195C-0.00687595 1.16411 0.00340971 1.25777 0.0344657 1.34488C1.01938 4.1584 5.26208 13 10.1047 13H12.1429C12.3565 13 12.5613 12.9116 12.7123 12.7544C12.8633 12.5971 12.9482 12.3838 12.9482 12.1614V10.8797C12.9482 10.7189 12.9933 10.5616 13.0781 10.4272C13.1629 10.2928 13.2836 10.1872 13.4253 10.1234C13.567 10.0595 13.7235 10.0402 13.8756 10.0679C14.0277 10.0956 14.1687 10.169 14.2812 10.2791L16.7209 12.6663C16.94 12.8806 17.2293 13 17.53 13H20.7336C22.2788 13 22.2788 11.8834 21.4363 11.0194C20.8435 10.4113 18.7041 8.06283 18.7041 8.06283C18.5209 7.86517 18.4116 7.60578 18.396 7.33153C18.3804 7.05729 18.4595 6.78628 18.619 6.56749C19.3106 5.61977 20.4416 4.06843 20.9213 3.40385C21.577 2.49548 22.7637 0.571114 21.1367 0.571114Z" fill="black"/>
</svg>
