<svg width="86" height="78" viewBox="0 0 86 78" fill="none" xmlns="http://www.w3.org/2000/svg">
<g clip-path="url(#clip0_706_85)">
<path fill-rule="evenodd" clip-rule="evenodd" d="M67.6042 51.6168C61.8793 44.1233 52.974 32.1694 44.9592 23.6819C40.4048 18.8647 23.8917 0.589754 15.9278 1.7622C13.4343 2.14452 12.3403 3.80125 12.3148 3.80125C13.0527 4.46393 18.6249 6.0187 21.9326 8.59299C27.3775 12.824 32.7971 17.7177 40.7864 25.8229C49.4119 34.6163 57.503 44.6076 62.5409 51.5658C66.8663 57.5555 68.7746 60.3592 69.6651 59.62C72.413 57.3261 69.258 53.7833 67.6042 51.6168Z" fill="white"/>
<path fill-rule="evenodd" clip-rule="evenodd" d="M44.9592 44.9134C42.6947 41.7529 42.4148 44.633 41.3462 46.7485C38.0639 55.1851 28.9041 60.8434 25.1385 63.0099C23.5609 63.9274 23.5101 65.2273 24.4006 65.89C24.9604 66.3233 26.0035 66.4253 26.8941 66.2214C34.8834 64.4627 47.4272 48.1504 44.9592 44.9134Z" fill="white"/>
<path fill-rule="evenodd" clip-rule="evenodd" d="M31.5249 7.98105C31.4485 10.7847 34.2982 11.0396 34.4254 7.93008C34.5527 4.87151 33.0515 1.88941 31.0923 2.3482C28.9041 2.88345 31.6266 4.05589 31.5249 7.98105Z" fill="white"/>
<path fill-rule="evenodd" clip-rule="evenodd" d="M40.0739 12.2376C41.1171 9.00059 39.0053 6.55374 37.9112 6.91058C37.3769 7.08899 37.4278 7.82814 37.7077 9.79072C37.8095 10.6063 37.4532 12.1101 37.5805 12.5434C38.3438 15.5255 39.387 14.3531 40.0739 12.2376Z" fill="white"/>
<path fill-rule="evenodd" clip-rule="evenodd" d="M24.4515 2.39936L26.3089 3.82669C28.5479 6.1461 28.8024 2.62875 27.0976 0.92105C26.4361 0.232874 24.9603 -0.225911 23.8663 0.130922C22.3142 0.66617 23.6118 1.6602 24.4515 2.39936Z" fill="white"/>
<path fill-rule="evenodd" clip-rule="evenodd" d="M43.2799 18.3039C44.2722 16.6472 44.4249 14.5572 43.3817 12.7985C42.4148 11.1418 41.3716 11.1418 41.4479 13.0024C41.4734 13.4357 41.5752 14.0984 41.5497 15.6277C41.5243 17.6922 41.1172 17.1569 41.3462 17.7941C42.0586 19.7057 42.1349 20.1645 43.2799 18.3039Z" fill="white"/>
<path fill-rule="evenodd" clip-rule="evenodd" d="M50.3024 14.1747C59.3349 20.2154 66.1284 28.2186 72.0059 37.904C75.2373 43.2056 76.3314 45.8563 77.0183 47.1562C78.4941 50.0109 79.8681 47.615 78.8757 44.48C76.2805 36.2218 64.0166 15.4746 49.2846 9.2555C46.842 8.23598 46.2823 9.91819 46.0787 10.224C45.5444 11.0397 49.5136 13.6394 50.3024 14.1747Z" fill="white"/>
<path fill-rule="evenodd" clip-rule="evenodd" d="M49.5645 24.0385C53.7372 27.25 56.1544 29.5694 59.9455 34.5906C62.3118 37.7256 65.0088 40.8351 67.1716 44.4799C68.9781 47.4875 69.8177 49.9853 71.268 52.9165C72.184 54.7261 75.0083 53.885 74.3467 51.3362C74.0668 50.2402 73.6597 49.2462 72.9728 47.7934C69.3597 40.2744 62.897 31.532 57.1467 25.7207C56.0526 24.5992 54.0171 22.7896 51.829 21.0054C49.1828 18.8644 46.5621 18.1508 45.8751 18.5841C45.2136 18.9664 46.7911 21.6426 49.5645 24.0385Z" fill="white"/>
<path fill-rule="evenodd" clip-rule="evenodd" d="M61.2941 8.31255C58.6734 6.75778 56.9941 5.27947 55.1113 4.43837C53.5592 3.75019 51.5237 4.56581 51.1929 5.02459C50.913 5.40691 50.7349 5.78923 52.7195 7.08912C57.961 10.5555 67.9095 16.3413 76.1533 29.799C78.8503 34.7691 79.3337 35.1005 80.9367 38.5413C81.9799 40.7588 82.7178 40.6569 83.2266 39.9432C83.8118 39.1276 84.0154 37.3179 83.6083 35.8906L78.9775 27.0972C75.5935 21.5153 66.3065 11.2946 61.2941 8.31255Z" fill="white"/>
<path fill-rule="evenodd" clip-rule="evenodd" d="M72.2858 13.8433C72.2095 15.9078 74.0923 15.7549 75.7716 12.7983C77.7562 9.25544 76.4077 4.76955 73.7107 4.10686C72.0059 3.18929 71.9805 4.84602 72.4639 5.942C74.932 11.4729 72.4639 9.51032 72.2858 13.8433Z" fill="white"/>
<path fill-rule="evenodd" clip-rule="evenodd" d="M79.0793 19.7567C80.555 18.1 82.1071 14.761 81.929 12.0338C81.8272 10.4281 80.9367 9.02621 79.5373 8.36353C77.7816 11.3966 80.1734 10.0457 79.0029 14.2258C78.774 15.0414 76.6621 17.8706 76.5858 18.3293C76.1532 20.9291 77.5272 21.4899 79.0793 19.7567Z" fill="white"/>
<path fill-rule="evenodd" clip-rule="evenodd" d="M69.6651 9.23001C70.174 6.88511 69.6905 3.62265 67.884 2.19532C66.3065 0.946404 64.7544 1.35421 64.4746 1.99141C64.2201 2.55215 65.0598 3.13837 65.2633 4.20887L66.0775 8.4144C66.7645 10.5299 68.9018 12.8493 69.6651 9.23001Z" fill="white"/>
<path fill-rule="evenodd" clip-rule="evenodd" d="M84.168 17.7175C82.4124 18.788 82.8449 19.7311 82.1834 21.4643C81.1148 23.7582 79.7662 23.8092 79.9952 25.9502C80.3514 29.2891 82.5142 25.4404 83.5319 24.3954C84.8041 23.0955 85.6692 20.2408 84.168 17.7175Z" fill="white"/>
<path fill-rule="evenodd" clip-rule="evenodd" d="M29.3622 69.5348C29.871 70.9621 31.9829 70.6053 33.8148 69.4074C38.8018 66.0939 44.603 60.3081 46.6894 55.7458C47.3255 53.6813 45.1119 52.3049 43.9669 54.6498C42.5929 57.7084 36.2065 63.9274 31.7284 66.7311C28.9296 68.4898 29.2349 69.2289 29.3622 69.5348Z" fill="white"/>
<path fill-rule="evenodd" clip-rule="evenodd" d="M47.5035 60.512C42.9237 66.9095 39.2343 69.8661 36.6645 71.7012C34.2473 73.4344 36.1556 76.2636 39.1071 74.3775C42.2367 72.3385 48.9284 65.1763 49.8953 63.1882C52.287 58.3965 49.2083 57.4025 47.5035 60.512Z" fill="white"/>
<path fill-rule="evenodd" clip-rule="evenodd" d="M47.6053 71.5993C45.8752 72.7973 43.7633 74.2501 42.2367 75.0402C39.3107 76.544 40.8882 78.8634 43.7888 77.691C45.6207 76.9518 48.1142 75.6264 50.455 73.6893C52.4651 72.0071 54.6024 70.4269 55.4929 68.082C56.7906 64.6921 53.3811 63.4432 52.3888 65.6861C51.2692 68.1839 48.6994 70.6053 47.6053 71.5993Z" fill="white"/>
<path fill-rule="evenodd" clip-rule="evenodd" d="M9.08343 8.26152C10.2284 8.9497 11.5515 9.63788 12.6201 9.99471C14.5793 10.6319 14.0959 8.64384 13.5106 8.23604C12.2893 7.06359 9.94852 6.06955 9.56686 6.12053C8.47278 6.27346 7.65858 7.39493 9.08343 8.26152Z" fill="white"/>
<path fill-rule="evenodd" clip-rule="evenodd" d="M16.971 13.1552C18.0397 13.9199 19.3118 14.7355 20.3296 15.1433C22.2379 15.9589 21.9071 13.9199 21.3728 13.4611C20.2278 12.2122 17.9888 11.0142 17.6071 11.0397C16.513 11.0907 15.597 12.1612 16.971 13.1552Z" fill="white"/>
<path fill-rule="evenodd" clip-rule="evenodd" d="M24.0698 18.0998C24.8586 18.839 25.8509 19.6291 26.6651 20.0624C28.1663 20.9035 28.0645 19.1958 27.6574 18.788C26.8432 17.6156 25.0876 16.4431 24.7823 16.4176C23.8663 16.3666 23.0266 17.1568 24.0698 18.0998Z" fill="white"/>
<path fill-rule="evenodd" clip-rule="evenodd" d="M30.9396 24.2936C31.8047 25.2876 32.8734 26.3326 33.7639 26.9953C35.4432 28.1933 35.5959 26.1287 35.1633 25.568C34.3237 24.0897 32.3899 22.433 32.0337 22.382C30.9396 22.1781 29.8201 23.0192 30.9396 24.2936Z" fill="white"/>
<path fill-rule="evenodd" clip-rule="evenodd" d="M37.1479 31.2517C38.0385 32.2457 39.1071 33.3162 39.9976 33.9534C41.6769 35.1514 41.8041 33.1123 41.3716 32.5516C40.5574 31.0478 38.6237 29.4166 38.242 29.3401C37.1734 29.1617 36.0538 29.9773 37.1479 31.2517Z" fill="white"/>
<path fill-rule="evenodd" clip-rule="evenodd" d="M43.4834 38.1335C44.3485 39.1276 45.4172 40.1981 46.3331 40.8353C48.0124 42.0332 48.1396 39.9942 47.7071 39.4334C46.8929 37.9296 44.9592 36.2984 44.5775 36.2219C43.5089 36.0435 42.3639 36.8591 43.4834 38.1335Z" fill="white"/>
<path fill-rule="evenodd" clip-rule="evenodd" d="M50.4041 46.0858C51.2183 47.1308 52.2106 48.2523 53.0757 48.9404C54.7041 50.2403 54.9586 48.2013 54.5515 47.6151C53.8136 46.0858 51.9816 44.3271 51.6 44.2506C50.5568 43.9958 49.3609 44.7604 50.4041 46.0858Z" fill="white"/>
<path fill-rule="evenodd" clip-rule="evenodd" d="M56.9686 54.4713C57.7574 55.5163 58.7752 56.6377 59.6402 57.3514C61.2432 58.6513 61.4976 56.6123 61.0905 56.026C60.3527 54.4713 58.5207 52.7126 58.1645 52.6361C57.0959 52.3812 55.9255 53.1459 56.9686 54.4713Z" fill="white"/>
<path fill-rule="evenodd" clip-rule="evenodd" d="M62.6426 61.2767C63.4568 62.3218 63.3805 62.4492 64.2456 63.1374C65.874 64.4373 66.3319 62.0414 65.9248 61.4552C65.187 59.9259 64.1947 59.5181 63.8385 59.4161C62.7698 59.1867 61.5994 59.9259 62.6426 61.2767Z" fill="white"/>
<path fill-rule="evenodd" clip-rule="evenodd" d="M23.0521 57.8356C21.8817 58.4474 20.584 59.212 19.7444 59.9511C18.1923 61.302 20.1261 61.9137 20.7876 61.6334C22.416 61.1746 24.5024 59.6963 24.6296 59.3649C25.0876 58.3454 24.5533 57.0455 23.0521 57.8356Z" fill="white"/>
<path fill-rule="evenodd" clip-rule="evenodd" d="M30.2018 52.2284C29.1586 53.044 28.0645 54.0635 27.403 54.9556C26.1308 56.5869 28.1663 56.8162 28.7515 56.4084C30.2527 55.6183 31.9828 53.7577 32.0592 53.3754C32.2882 52.3304 31.5249 51.1579 30.2018 52.2284Z" fill="white"/>
<path fill-rule="evenodd" clip-rule="evenodd" d="M35.5195 45.4486C34.6799 46.4681 33.7893 47.6915 33.3059 48.6855C32.3645 50.5462 34.4254 50.3678 34.9089 49.8325C36.2319 48.7875 37.5805 46.621 37.5805 46.2387C37.6059 45.1427 36.6136 44.1487 35.5195 45.4486Z" fill="white"/>
<path fill-rule="evenodd" clip-rule="evenodd" d="M38.9036 39.5609C38.3184 40.7588 38.1657 41.2686 37.9367 42.339C37.5042 44.3781 39.4379 43.6899 39.7687 43.0782C40.8119 41.7273 40.9391 40.6313 40.8373 40.2745C40.5829 39.204 39.6414 38.0316 38.9036 39.5609Z" fill="white"/>
<path fill-rule="evenodd" clip-rule="evenodd" d="M25.1385 37.7258C20.2533 46.6975 14.6811 47.0799 10.9917 48.915C8.21835 50.2659 8.57457 52.8911 12.6201 52.2539C17.3272 51.4893 24.2479 44.9898 26.3089 42.1607C31.4231 35.1005 27.632 34.8711 27.6065 34.8201C25.9018 34.3868 25.6982 36.5533 25.1385 37.7258Z" fill="white"/>
<path fill-rule="evenodd" clip-rule="evenodd" d="M19.7698 32.6536C18.0905 35.7631 15.9023 37.3944 14.1213 38.8472C9.77038 42.39 5.87748 42.7723 3.84198 45.2702C6.74257 49.2718 17.9378 40.7078 20.5077 37.1905C25.3674 30.4616 23.0012 29.9773 22.0597 30.0028C20.3296 30.1048 20.3296 31.5831 19.7698 32.6536Z" fill="white"/>
<path fill-rule="evenodd" clip-rule="evenodd" d="M14.6048 28.1932C10.0503 36.6043 5.44499 35.7122 2.44262 37.9042C0.254458 39.5354 2.7225 40.8098 3.96925 40.5549C8.0657 39.6883 14.0704 34.6927 15.7243 32.3988C19.9988 26.4855 16.6403 25.9248 16.6148 25.8738C15.3426 25.7719 15.0373 27.2757 14.6048 28.1932Z" fill="white"/>
<path fill-rule="evenodd" clip-rule="evenodd" d="M7.91304 21.8721C9.79588 23.0955 10.661 25.6698 12.213 26.7148C12.8237 27.0971 14.6302 27.1481 13.6888 25.0581C11.8568 20.98 6.00475 17.2332 3.05327 17.2842C2.01008 17.3862 0.73789 18.686 2.74795 19.7056C4.93611 20.8016 7.30239 21.4897 7.91304 21.8721Z" fill="white"/>
<path fill-rule="evenodd" clip-rule="evenodd" d="M9.54143 30.436C10.1266 30.8183 12.0604 30.1557 10.5846 28.397C9.28699 26.8422 8.829 25.9501 6.28462 24.4973C4.68167 23.5797 2.97693 23.5033 1.83196 23.5288C0.788766 23.6307 -0.483424 24.9306 1.52664 25.9501C2.59527 26.4854 3.84202 26.5364 4.758 26.8932C6.76806 27.7343 6.84439 28.6519 9.54143 30.436Z" fill="white"/>
<path fill-rule="evenodd" clip-rule="evenodd" d="M6.94617 32.0418C6.43729 31.481 6.03019 31.2516 4.55445 30.4105C3.33315 29.6969 2.01007 29.6459 1.11954 29.6714C0.305339 29.7223 -0.7633 31.0987 0.788771 31.8633C1.47575 32.2202 3.40948 32.8319 4.02013 33.3162C6.76806 35.4826 8.34558 33.673 6.94617 32.0418Z" fill="white"/>
<path fill-rule="evenodd" clip-rule="evenodd" d="M58.8515 1.8895C56.9177 1.71109 57.5538 3.24037 58.4444 4.05599C59.4621 5.02453 62.3118 7.52236 62.2355 4.59124C62.1592 1.83853 59.4621 1.78755 58.8515 1.8895Z" fill="white"/>
<path fill-rule="evenodd" clip-rule="evenodd" d="M85.8982 27.8364C85.8473 25.8993 84.397 26.6895 83.6846 27.6835C82.8704 28.805 80.7077 31.9145 83.6083 31.5067C86.3308 31.0989 86.0763 28.4481 85.8982 27.8364Z" fill="white"/>
<path fill-rule="evenodd" clip-rule="evenodd" d="M58.5207 61.2257C54.8822 56.4594 49.6917 50.1894 44.2467 44.0723C44.0177 43.7919 43.6361 44.4801 43.3816 44.1997L42.4402 46.4681C47.1219 51.3873 51.2946 56.0516 54.1952 60.0787C58.5207 66.0939 59.6657 69.3054 60.5562 68.5662C63.3041 66.2978 60.1745 63.3922 58.5207 61.2257ZM31.9319 30.8185C22.0343 20.8017 13.4343 14.2003 12.4674 13.7415C5.08873 9.61244 4.98696 10.0202 4.35086 12.0593C2.36625 14.6846 5.16506 14.3022 10.2793 17.9725C16.1313 22.1271 23.7136 27.3266 31.7029 35.4573L32.7207 36.5023C28.8532 50.011 13.5361 55.8477 13.4343 56.1536C14.1722 56.5869 14.1722 57.8868 15.139 57.8613C22.3905 57.5554 36.8171 42.5685 36.4864 36.4768C36.3846 34.7436 33.2296 32.1439 31.9319 30.8185Z" fill="white"/>
</g>
<defs>
<clipPath id="clip0_706_85">
<rect width="86" height="78" fill="white"/>
</clipPath>
</defs>
</svg>
