<svg width="86" height="78" viewBox="0 0 86 78" fill="none" xmlns="http://www.w3.org/2000/svg">
<path fill-rule="evenodd" clip-rule="evenodd" d="M67.6042 51.6165C61.8793 44.1231 52.974 32.1692 44.9592 23.6817C40.4048 18.8644 23.8917 0.58951 15.9278 1.76196C13.4343 2.14428 12.3403 3.801 12.3148 3.801C13.0527 4.46369 18.6249 6.01846 21.9326 8.59275C27.3775 12.8238 32.7971 17.7175 40.7864 25.8227C49.4119 34.616 57.503 44.6073 62.5409 51.5656C66.8663 57.5553 68.7746 60.3589 69.6651 59.6198C72.413 57.3259 69.258 53.783 67.6042 51.6165Z" fill="#FED03C"/>
<path fill-rule="evenodd" clip-rule="evenodd" d="M44.9592 44.9131C42.6947 41.7526 42.4148 44.6328 41.3462 46.7483C38.0639 55.1848 28.9041 60.8432 25.1385 63.0096C23.5609 63.9272 23.5101 65.2271 24.4006 65.8898C24.9604 66.3231 26.0035 66.425 26.8941 66.2211C34.8834 64.4625 47.4272 48.1501 44.9592 44.9131Z" fill="#FED03C"/>
<path fill-rule="evenodd" clip-rule="evenodd" d="M31.5249 7.98105C31.4485 10.7847 34.2982 11.0396 34.4254 7.93008C34.5527 4.87151 33.0515 1.88941 31.0923 2.3482C28.9041 2.88345 31.6266 4.05589 31.5249 7.98105Z" fill="#62BED5"/>
<path fill-rule="evenodd" clip-rule="evenodd" d="M40.074 12.2376C41.1172 9.00059 39.0054 6.55374 37.9113 6.91058C37.377 7.08899 37.4279 7.82814 37.7077 9.79072C37.8095 10.6063 37.4533 12.1101 37.5805 12.5434C38.3438 15.5255 39.387 14.3531 40.074 12.2376Z" fill="#62BED5"/>
<path fill-rule="evenodd" clip-rule="evenodd" d="M24.4515 2.39911L26.3089 3.82644C28.548 6.14585 28.8024 2.6285 27.0977 0.920806C26.4361 0.232629 24.9604 -0.226155 23.8663 0.130677C22.3143 0.665926 23.6119 1.65996 24.4515 2.39911Z" fill="#62BED5"/>
<path fill-rule="evenodd" clip-rule="evenodd" d="M43.2798 18.3037C44.2721 16.6469 44.4248 14.5569 43.3816 12.7982C42.4147 11.1415 41.3716 11.1415 41.4479 13.0021C41.4733 13.4354 41.5751 14.0981 41.5497 15.6274C41.5242 17.6919 41.1171 17.1567 41.3461 17.7939C42.0585 19.7055 42.1349 20.1643 43.2798 18.3037Z" fill="#62BED5"/>
<path fill-rule="evenodd" clip-rule="evenodd" d="M50.3024 14.1747C59.3349 20.2154 66.1284 28.2186 72.0059 37.904C75.2373 43.2056 76.3314 45.8563 77.0183 47.1562C78.4941 50.0109 79.8681 47.615 78.8757 44.48C76.2805 36.2218 64.0166 15.4746 49.2846 9.2555C46.842 8.23598 46.2823 9.91819 46.0787 10.224C45.5444 11.0397 49.5136 13.6394 50.3024 14.1747Z" fill="#B0CB1F"/>
<path fill-rule="evenodd" clip-rule="evenodd" d="M49.5645 24.0385C53.7372 27.25 56.1544 29.5694 59.9455 34.5906C62.3118 37.7256 65.0088 40.8351 67.1716 44.4799C68.9781 47.4875 69.8177 49.9853 71.268 52.9165C72.184 54.7261 75.0083 53.885 74.3467 51.3362C74.0668 50.2402 73.6597 49.2462 72.9728 47.7934C69.3597 40.2744 62.897 31.532 57.1467 25.7207C56.0526 24.5992 54.0171 22.7896 51.829 21.0054C49.1828 18.8644 46.5621 18.1508 45.8751 18.5841C45.2136 18.9664 46.7911 21.6426 49.5645 24.0385Z" fill="#B0CB1F"/>
<path fill-rule="evenodd" clip-rule="evenodd" d="M61.294 8.31242C58.6733 6.75765 56.994 5.27935 55.1112 4.43824C53.5591 3.75007 51.5236 4.56568 51.1929 5.02447C50.913 5.40679 50.7349 5.78911 52.7195 7.089C57.9609 10.5554 67.9094 16.3412 76.1532 29.7988C78.8502 34.769 79.3337 35.1003 80.9366 38.5412C81.9798 40.7587 82.7177 40.6567 83.2266 39.9431C83.8118 39.1274 84.0153 37.3178 83.6082 35.8905L78.9775 27.0971C75.5934 21.5152 66.3065 11.2945 61.294 8.31242Z" fill="#B0CB1F"/>
<path fill-rule="evenodd" clip-rule="evenodd" d="M72.2858 13.8433C72.2094 15.9078 74.0923 15.7549 75.7716 12.7983C77.7562 9.25544 76.4076 4.76955 73.7106 4.10686C72.0059 3.18929 71.9804 4.84602 72.4639 5.942C74.9319 11.4729 72.4639 9.51032 72.2858 13.8433Z" fill="#B0CB1F"/>
<path fill-rule="evenodd" clip-rule="evenodd" d="M79.0793 19.7566C80.5551 18.0998 82.1072 14.7609 81.929 12.0337C81.8273 10.4279 80.9367 9.02609 79.5373 8.3634C77.7817 11.3965 80.1734 10.0456 79.003 14.2257C78.774 15.0413 76.6622 17.8704 76.5859 18.3292C76.1533 20.929 77.5273 21.4897 79.0793 19.7566Z" fill="#FED03C"/>
<path fill-rule="evenodd" clip-rule="evenodd" d="M69.6651 9.23001C70.174 6.88511 69.6905 3.62265 67.884 2.19532C66.3065 0.946404 64.7544 1.35421 64.4746 1.99141C64.2201 2.55215 65.0598 3.13837 65.2633 4.20887L66.0775 8.4144C66.7645 10.5299 68.9018 12.8493 69.6651 9.23001Z" fill="#FED03C"/>
<path fill-rule="evenodd" clip-rule="evenodd" d="M84.1681 17.7174C82.4125 18.7879 82.845 19.731 82.1835 21.4641C81.1148 23.7581 79.7663 23.809 79.9953 25.95C80.3515 29.289 82.5142 25.4403 83.532 24.3953C84.8042 23.0954 85.6693 20.2407 84.1681 17.7174Z" fill="#FED03C"/>
<path fill-rule="evenodd" clip-rule="evenodd" d="M29.3621 69.5347C29.871 70.962 31.9828 70.6052 33.8148 69.4072C38.8017 66.0938 44.6029 60.308 46.6893 55.7457C47.3254 53.6811 45.1118 52.3048 43.9668 54.6497C42.5929 57.7082 36.2065 63.9273 31.7284 66.731C28.9295 68.4897 29.2349 69.2288 29.3621 69.5347Z" fill="#B0CB1F"/>
<path fill-rule="evenodd" clip-rule="evenodd" d="M47.5035 60.5119C42.9237 66.9094 39.2343 69.866 36.6645 71.7011C34.2473 73.4343 36.1556 76.2635 39.1071 74.3774C42.2367 72.3383 48.9284 65.1762 49.8953 63.1881C52.287 58.3964 49.2083 57.4023 47.5035 60.5119Z" fill="#B0CB1F"/>
<path fill-rule="evenodd" clip-rule="evenodd" d="M47.6053 71.5992C45.8752 72.7971 43.7633 74.25 42.2367 75.0401C39.3107 76.5439 40.8882 78.8633 43.7888 77.6908C45.6207 76.9517 48.1142 75.6263 50.455 73.6892C52.4651 72.007 54.6024 70.4268 55.4929 68.0819C56.7906 64.6919 53.3811 63.443 52.3888 65.686C51.2692 68.1838 48.6994 70.6052 47.6053 71.5992Z" fill="#B0CB1F"/>
<path fill-rule="evenodd" clip-rule="evenodd" d="M9.08343 8.2614C10.2284 8.94958 11.5515 9.63776 12.6201 9.99459C14.5793 10.6318 14.0959 8.64372 13.5106 8.23591C12.2893 7.06346 9.94852 6.06943 9.56686 6.12041C8.47278 6.27334 7.65858 7.39481 9.08343 8.2614Z" fill="#62BED5"/>
<path fill-rule="evenodd" clip-rule="evenodd" d="M16.971 13.1551C18.0397 13.9197 19.3118 14.7353 20.3296 15.1432C22.2379 15.9588 21.9071 13.9197 21.3728 13.4609C20.2278 12.212 17.9888 11.0141 17.6071 11.0396C16.513 11.0906 15.597 12.1611 16.971 13.1551Z" fill="#62BED5"/>
<path fill-rule="evenodd" clip-rule="evenodd" d="M24.0698 18.0998C24.8586 18.839 25.8509 19.6291 26.6651 20.0624C28.1663 20.9035 28.0645 19.1958 27.6574 18.788C26.8432 17.6156 25.0876 16.4431 24.7823 16.4176C23.8663 16.3666 23.0266 17.1568 24.0698 18.0998Z" fill="#62BED5"/>
<path fill-rule="evenodd" clip-rule="evenodd" d="M30.9396 24.2934C31.8047 25.2874 32.8733 26.3324 33.7638 26.9951C35.4431 28.193 35.5958 26.1285 35.1633 25.5678C34.3236 24.0894 32.3899 22.4327 32.0337 22.3818C30.9396 22.1778 29.8201 23.019 30.9396 24.2934Z" fill="#62BED5"/>
<path fill-rule="evenodd" clip-rule="evenodd" d="M37.1479 31.2516C38.0385 32.2456 39.1071 33.3161 39.9976 33.9533C41.6769 35.1512 41.8041 33.1122 41.3716 32.5515C40.5574 31.0477 38.6237 29.4164 38.242 29.34C37.1734 29.1616 36.0538 29.9772 37.1479 31.2516Z" fill="#62BED5"/>
<path fill-rule="evenodd" clip-rule="evenodd" d="M43.4834 38.1334C44.3485 39.1274 45.4172 40.1979 46.3331 40.8351C48.0124 42.0331 48.1396 39.994 47.7071 39.4333C46.8929 37.9295 44.9592 36.2983 44.5775 36.2218C43.5089 36.0434 42.3639 36.859 43.4834 38.1334Z" fill="#62BED5"/>
<path fill-rule="evenodd" clip-rule="evenodd" d="M50.4041 46.0856C51.2183 47.1307 52.2106 48.2521 53.0757 48.9403C54.7041 50.2402 54.9586 48.2012 54.5515 47.6149C53.8136 46.0856 51.9816 44.327 51.6 44.2505C50.5568 43.9956 49.3609 44.7603 50.4041 46.0856Z" fill="#62BED5"/>
<path fill-rule="evenodd" clip-rule="evenodd" d="M56.9686 54.4711C57.7573 55.5162 58.7751 56.6376 59.6402 57.3513C61.2431 58.6512 61.4976 56.6121 61.0905 56.0259C60.3526 54.4711 58.5207 52.7125 58.1644 52.636C57.0958 52.3811 55.9254 53.1458 56.9686 54.4711Z" fill="#62BED5"/>
<path fill-rule="evenodd" clip-rule="evenodd" d="M62.6427 61.2765C63.4569 62.3215 63.3805 62.4489 64.2456 63.1371C65.874 64.437 66.332 62.0411 65.9249 61.4549C65.187 59.9256 64.1947 59.5178 63.8385 59.4159C62.7699 59.1865 61.5995 59.9256 62.6427 61.2765Z" fill="#62BED5"/>
<path fill-rule="evenodd" clip-rule="evenodd" d="M23.052 57.8356C21.8816 58.4474 20.584 59.212 19.7443 59.9511C18.1923 61.302 20.126 61.9137 20.7875 61.6334C22.4159 61.1746 24.5023 59.6963 24.6295 59.3649C25.0875 58.3454 24.5532 57.0455 23.052 57.8356Z" fill="#62BED5"/>
<path fill-rule="evenodd" clip-rule="evenodd" d="M30.2018 52.2283C29.1586 53.0439 28.0645 54.0634 27.403 54.9555C26.1308 56.5867 28.1663 56.8161 28.7515 56.4083C30.2527 55.6182 31.9828 53.7576 32.0592 53.3752C32.2882 52.3302 31.5249 51.1578 30.2018 52.2283Z" fill="#62BED5"/>
<path fill-rule="evenodd" clip-rule="evenodd" d="M35.5195 45.4484C34.6799 46.468 33.7893 47.6914 33.3059 48.6854C32.3645 50.546 34.4254 50.3676 34.9089 49.8324C36.2319 48.7874 37.5805 46.6209 37.5805 46.2386C37.6059 45.1426 36.6136 44.1485 35.5195 45.4484Z" fill="#62BED5"/>
<path fill-rule="evenodd" clip-rule="evenodd" d="M38.9035 39.5607C38.3183 40.7587 38.1656 41.2684 37.9366 42.3389C37.5041 44.378 39.4378 43.6898 39.7686 43.0781C40.8118 41.7272 40.939 40.6312 40.8372 40.2744C40.5828 39.2039 39.6414 38.0314 38.9035 39.5607Z" fill="#62BED5"/>
<path fill-rule="evenodd" clip-rule="evenodd" d="M25.1385 37.7255C20.2533 46.6973 14.6811 47.0796 10.9917 48.9148C8.21835 50.2656 8.57457 52.8909 12.6201 52.2537C17.3272 51.489 24.2479 44.9896 26.3089 42.1604C31.4231 35.1002 27.632 34.8708 27.6065 34.8199C25.9018 34.3866 25.6982 36.5531 25.1385 37.7255Z" fill="#62BED5"/>
<path fill-rule="evenodd" clip-rule="evenodd" d="M19.7699 32.6535C18.0906 35.763 15.9024 37.3942 14.1213 38.8471C9.77044 42.3899 5.87754 42.7722 3.84204 45.27C6.74263 49.2717 17.9379 40.7077 20.5077 37.1903C25.3675 30.4615 23.0012 29.9772 22.0598 30.0027C20.3296 30.1047 20.3296 31.583 19.7699 32.6535Z" fill="#62BED5"/>
<path fill-rule="evenodd" clip-rule="evenodd" d="M14.6047 28.193C10.0503 36.604 5.44493 35.712 2.44256 37.9039C0.254397 39.5352 2.72244 40.8096 3.96919 40.5547C8.06564 39.6881 14.0704 34.6924 15.7242 32.3985C19.9988 26.4853 16.6402 25.9246 16.6148 25.8736C15.3426 25.7716 15.0372 27.2754 14.6047 28.193Z" fill="#62BED5"/>
<path fill-rule="evenodd" clip-rule="evenodd" d="M7.91298 21.8721C9.79582 23.0955 10.6609 25.6698 12.213 26.7148C12.8236 27.0971 14.6301 27.1481 13.6887 25.0581C11.8568 20.98 6.00469 17.2332 3.05321 17.2842C2.01002 17.3862 0.737829 18.686 2.74789 19.7056C4.93605 20.8016 7.30233 21.4897 7.91298 21.8721Z" fill="#B0CB1F"/>
<path fill-rule="evenodd" clip-rule="evenodd" d="M9.54137 30.436C10.1266 30.8183 12.0603 30.1557 10.5846 28.397C9.28693 26.8422 8.82894 25.9501 6.28456 24.4973C4.6816 23.5797 2.97687 23.5033 1.8319 23.5288C0.788705 23.6307 -0.483485 24.9306 1.52657 25.9501C2.59521 26.4854 3.84196 26.5364 4.75794 26.8932C6.768 27.7343 6.84433 28.6519 9.54137 30.436Z" fill="#B0CB1F"/>
<path fill-rule="evenodd" clip-rule="evenodd" d="M6.94611 32.0418C6.43723 31.481 6.03013 31.2516 4.55439 30.4105C3.33309 29.6969 2.01001 29.6459 1.11948 29.6714C0.305278 29.7223 -0.763361 31.0987 0.78871 31.8633C1.47569 32.2202 3.40942 32.8319 4.02007 33.3162C6.768 35.4826 8.34551 33.673 6.94611 32.0418Z" fill="#B0CB1F"/>
<path fill-rule="evenodd" clip-rule="evenodd" d="M58.8515 1.88938C56.9178 1.71097 57.5539 3.24025 58.4444 4.05587C59.4622 5.02441 62.3119 7.52224 62.2356 4.59111C62.1592 1.83841 59.4622 1.78743 58.8515 1.88938Z" fill="#FED03C"/>
<path fill-rule="evenodd" clip-rule="evenodd" d="M85.8982 27.8362C85.8473 25.8991 84.397 26.6892 83.6846 27.6833C82.8704 28.8047 80.7077 31.9143 83.6083 31.5065C86.3308 31.0987 86.0763 28.4479 85.8982 27.8362Z" fill="#FED03C"/>
<path fill-rule="evenodd" clip-rule="evenodd" d="M58.5207 61.2256C54.8823 56.4593 49.6917 50.1893 44.2468 44.0721C44.0178 43.7918 43.6361 44.4799 43.3817 44.1996L42.4403 46.468C47.1219 51.3872 51.2947 56.0515 54.1953 60.0786C58.5207 66.0938 59.6657 69.3053 60.5562 68.5661C63.3042 66.2977 60.1746 63.3921 58.5207 61.2256ZM31.932 30.8184C22.0344 20.8016 13.4344 14.2002 12.4675 13.7414C5.08879 9.61232 4.98702 10.0201 4.35092 12.0592C2.36631 14.6844 5.16512 14.3021 10.2793 17.9724C16.1314 22.1269 23.7136 27.3265 31.703 35.4572L32.7207 36.5022C28.8533 50.0108 13.5361 55.8476 13.4344 56.1535C14.1722 56.5868 14.1722 57.8866 15.1391 57.8612C22.3906 57.5553 36.8172 42.5683 36.4864 36.4767C36.3846 34.7435 33.2296 32.1437 31.932 30.8184Z" fill="#FED03C"/>
</svg>
