<svg width="466" height="47" viewBox="0 0 466 47" fill="none" xmlns="http://www.w3.org/2000/svg">
<path d="M12.4257 2.54782C12.4257 2.00543 12.0312 1.36443 11.2916 1.36443H1.13409C0.54239 1.36443 0 1.8082 0 2.54782V44.5091C0 45.0515 0.394466 45.6925 1.13409 45.6925H11.2916C11.834 45.6925 12.4257 45.2487 12.4257 44.5091V28.6812H19.7233L29.6342 44.805C30.0287 45.446 30.4725 45.6925 31.0149 45.6925H38.4604C39.0028 45.6925 39.4466 45.3474 39.4466 44.7063V38.0004C39.4466 37.3594 39.2 36.6198 38.8056 36.0774L29.8315 21.5315L40.1862 7.28141C40.5807 6.73902 40.3834 5.90078 39.841 5.50632L31.8531 0.230337C31.2121 -0.114821 30.6697 -0.114821 30.1766 0.526186L19.1809 16.2555H12.4257V2.54782ZM59.2685 19.855C59.2685 15.22 62.079 12.656 66.6647 12.656C71.2997 12.656 74.1102 15.22 74.1102 19.855V27.2019C74.1102 31.8369 71.2997 34.4009 66.6647 34.4009C62.079 34.4009 59.2685 31.8369 59.2685 27.2019V19.855ZM46.8428 28.0402C46.8428 38.4935 54.6335 46.4321 66.6647 46.4321C78.7452 46.4321 86.4866 38.4935 86.4866 28.0402V19.0168C86.4866 8.56342 78.7452 0.624803 66.6647 0.624803C54.6335 0.624803 46.8428 8.56342 46.8428 19.0168V28.0402ZM113.655 46.4321L128.103 42.4875C128.744 42.2902 129.04 41.6492 128.842 41.0082L125.884 31.6397C125.588 30.8014 125.144 30.6042 124.503 30.8014L111.979 34.3023C109.563 34.3023 107.245 32.5765 107.245 28.9277V18.1292C107.245 15.1214 109.316 12.7546 112.817 12.7546C115.233 12.7546 118.833 13.6422 123.566 15.4173C124.109 15.6145 124.553 15.4173 124.75 14.7763L127.807 4.96393C128.004 4.42154 127.807 4.02707 127.264 3.82984C122.284 1.90682 116.713 0.624803 112.817 0.624803C102.61 0.624803 94.8197 7.28141 94.8197 17.7348V29.3222C94.8197 39.7755 102.61 46.4321 112.817 46.4321H113.655ZM168.289 35.3378V17.4389C168.289 6.73902 160.794 0.624803 151.179 0.624803H148.467L136.436 4.12569C135.598 4.42154 135.499 4.86531 135.696 5.60493L138.359 14.579C138.556 15.3187 139.197 15.6145 139.838 15.4173L150.439 12.2615C153.546 12.2615 155.222 13.938 155.863 16.6993L141.515 21.5315C136.88 23.1093 134.02 27.0047 134.02 32.4779C134.02 40.5151 140.233 46.4321 148.664 46.4321H150.883L158.378 43.375L159.315 45.6432C159.66 46.5308 160.054 46.6294 160.794 46.3828L169.867 42.734C170.606 42.4875 170.902 41.9944 170.606 41.2548L168.289 35.3378ZM155.863 33.9572L150.587 36.0774C147.432 36.0774 145.952 33.4641 146.544 30.3577L155.863 27.2019V33.9572ZM204.58 44.5091C204.58 45.2487 205.171 45.6925 205.714 45.6925H215.921C216.66 45.6925 217.005 45.0515 217.005 44.5091V2.54782C217.005 1.8082 216.463 1.36443 215.921 1.36443H195.063C186.188 1.36443 179.334 7.8238 179.334 17.291C179.334 22.1725 181.553 26.2651 185.054 28.8784L179.137 37.0143C178.644 37.6553 178.496 38.2963 178.496 38.9373V44.7063C178.496 45.3474 178.939 45.6925 179.482 45.6925H187.766C188.308 45.6925 188.653 45.446 189.146 44.805L196.74 33.5627L204.58 34.9433V44.5091ZM196.148 22.0246C193.584 21.4329 192.203 19.855 192.203 17.291C192.203 14.7763 193.929 12.8532 196.345 12.8532H204.58V23.5038L196.148 22.0246ZM267.3 46.4321L281.747 42.4875C282.388 42.2902 282.684 41.6492 282.487 41.0082L279.528 31.6397C279.232 30.8014 278.789 30.6042 278.148 30.8014L265.623 34.3023C263.207 34.3023 260.89 32.5765 260.89 28.9277V18.1292C260.89 15.1214 262.961 12.7546 266.462 12.7546C268.878 12.7546 272.477 13.6422 277.211 15.4173C277.753 15.6145 278.246 15.4173 278.443 14.7763L281.501 4.96393C281.648 4.42154 281.501 4.02707 280.909 3.82984C275.929 1.90682 270.357 0.624803 266.462 0.624803C256.304 0.624803 248.513 7.28141 248.513 17.7348V29.3222C248.513 39.7755 256.304 46.4321 266.462 46.4321H267.3Z" fill="#FEFEFE"/>
<path d="M312.614 13.7408H323.905C324.645 13.7408 325.089 13.1984 325.089 12.656V2.44922C325.089 1.7096 324.448 1.36444 323.905 1.36444H288.897C288.354 1.36444 287.664 1.7096 287.664 2.44922V12.656C287.664 13.1984 288.157 13.7408 288.897 13.7408H300.188V44.5091C300.188 45.0515 300.533 45.6925 301.322 45.6925H311.48C312.022 45.6925 312.614 45.2488 312.614 44.5091V13.7408ZM367.543 19.7564V17.8334C367.543 7.38004 360.196 0.624817 350.039 0.624817C339.832 0.624817 331.598 7.38004 331.598 17.8334V29.3222C331.598 39.7755 339.388 46.4321 349.546 46.4321H350.384L364.634 43.7695C365.324 43.5723 365.571 42.9313 365.472 42.2903L363.549 33.1189C363.352 32.2807 362.908 32.0835 362.267 32.1821L348.708 34.6968C346.143 34.6968 343.974 32.9217 343.974 29.618V28.3853H364.092C364.634 28.3853 365.029 28.0895 365.226 27.5471L367.543 19.7564ZM356.054 18.7702H343.974V17.6362C343.974 14.6777 346.39 12.2616 350.039 12.2616C353.638 12.2616 356.054 14.6777 356.054 17.6362V18.7702ZM404.87 13.7408V44.5091C404.87 45.0515 405.215 45.6925 405.954 45.6925H416.161C416.704 45.6925 417.246 45.2488 417.246 44.5091V2.54784C417.246 2.00545 416.901 1.36444 416.161 1.36444H386.626C386.231 1.36444 385.787 1.51236 385.393 1.7096L377.997 5.40771C377.504 5.70356 377.257 6.04872 377.257 6.5418V44.5091C377.257 45.0515 377.602 45.6925 378.342 45.6925H388.45C389.288 45.6925 389.683 45.1501 389.683 44.4105V13.7408H404.87ZM441.703 33.6613V25.9692L446.535 24.5886H449.05C451.712 24.5886 453.389 26.4623 453.389 29.125C453.389 31.8369 451.712 33.6613 449.05 33.6613H441.703ZM450.233 45.6925C460.44 45.6925 465.962 38.8387 465.962 29.125C465.962 19.4112 460.44 12.5574 450.233 12.5574H447.373C445.993 12.5574 444.415 12.7546 443.182 13.0998L441.703 13.5929V2.54784C441.703 2.00545 441.358 1.36444 440.618 1.36444H430.411C429.869 1.36444 429.277 1.80821 429.277 2.54784V44.5091C429.277 45.0515 429.672 45.6925 430.411 45.6925H450.233Z" fill="#FEFEFE"/>
</svg>
