<svg width="1365" height="57" viewBox="0 0 1365 57" fill="none" xmlns="http://www.w3.org/2000/svg">
<g clip-path="url(#clip0_645_57)">
<path fill-rule="evenodd" clip-rule="evenodd" d="M1365.96 35.6689C1191.74 46.5493 821.735 5.19597 451.039 5.52805C352.983 5.60619 254.928 11.1148 160.368 18.3032C106.465 22.4054 50.7689 25.6871 0.0395508 32.9146V27.9139C49.2512 23.9681 98.1868 18.6939 154.159 14.3965C233.91 8.28234 323.548 0.0194841 451.912 -4.98416e-05C556.085 -0.0195838 667.754 3.92627 773.49 7.89166C961.23 14.9434 1196.71 39.0873 1365.96 29.4571C1365.96 35.6298 1365.5 26.6638 1365.96 35.6689Z" fill="#B0CB1F"/>
<path fill-rule="evenodd" clip-rule="evenodd" d="M0.0395508 39.0092C174.718 49.6747 543.989 8.47768 913.95 8.80976C1012 8.90743 1110.06 14.416 1204.62 21.6045C1258.52 25.6871 1314.27 28.9883 1364.99 36.2159C1364.99 1.73848 1364.99 57.2148 1364.99 31.2152C1315.78 27.2693 1266.8 21.9756 1210.83 17.6782C1131.08 11.564 1041.44 3.32072 913.076 3.30119C808.904 3.26212 697.235 7.22751 591.499 11.1929C404.127 18.2251 169.245 42.2909 0.0395508 32.817V39.0092Z" fill="#62BED5"/>
<path fill-rule="evenodd" clip-rule="evenodd" d="M1364.99 54.5387C1190.73 69.1501 820.724 13.6542 450.027 14.1035C352.017 14.2207 253.916 21.6045 159.356 31.2543C105.821 36.7042 50.4929 41.1189 0.0395508 50.671V44.049C48.8832 38.7553 97.5889 31.7231 153.147 25.9997C232.898 17.7954 322.536 6.71966 450.901 6.6806C555.073 6.66106 666.742 11.9743 772.478 17.2875C960.264 26.7419 1195.7 59.1487 1364.95 46.2173C1364.95 54.4997 1364.49 42.4668 1364.99 54.5387Z" fill="#FED03C"/>
</g>
<defs>
<clipPath id="clip0_645_57">
<rect width="1366" height="57" fill="white"/>
</clipPath>
</defs>
</svg>
