<svg width="340" height="307" viewBox="0 0 340 307" fill="none" xmlns="http://www.w3.org/2000/svg">
<path d="M224.525 278.364V298.197H234.833C246.476 298.197 252.596 293.872 252.596 285.589C252.596 279.008 245.831 272.52 239.021 272.52C234.925 272.52 233.867 271.093 233.867 265.479C233.867 260.095 232.808 258.484 229.219 258.484C224.939 258.484 224.525 260.095 224.525 278.364ZM242.058 285.359C242.058 287.935 240.217 290.374 237.962 290.743C234.971 291.249 233.867 289.776 233.867 285.359C233.867 280.941 234.971 279.468 237.962 279.974C240.217 280.343 242.058 282.782 242.058 285.359Z" fill="#62BED5"/>
<path d="M196.132 258.622C187.527 264.006 184.582 281.585 191.024 289.132C197.835 297.093 212.008 300.82 218.497 296.403C223.007 293.32 218.497 287.153 212.561 288.35C205.658 289.684 197.007 285.128 196.5 279.974C195.396 268.746 208.281 261.153 213.895 269.713C216.242 273.164 216.656 272.842 217.577 266.998C218.405 262.35 217.669 259.727 215.23 258.254C210.536 255.447 200.964 255.585 196.132 258.622Z" fill="#62BED5"/>
<path d="M159.87 298.197H172.709C183.938 298.197 185.64 297.737 185.64 294.24C185.64 291.065 183.984 290.236 177.449 290.236C170.869 290.236 169.258 289.5 169.258 286.279C169.258 283.242 170.869 282.321 176.253 282.321C182.097 282.321 183.293 281.447 183.293 277.305C183.293 273.164 182.097 272.336 176.253 272.336C171.605 272.336 169.258 271.415 169.258 269.39C169.258 267.366 171.835 266.399 177.449 266.399C183.984 266.399 185.64 265.617 185.64 262.442C185.64 258.944 183.938 258.484 172.709 258.484H159.87V298.197Z" fill="#62BED5"/>
<path d="M125.495 272.382C125.495 283.564 124.621 287.153 121.078 290.328C115.832 295.068 115.05 306.757 119.973 306.757C121.722 306.757 123.333 305.238 123.333 303.489C123.333 300.912 126.14 300.176 136.494 300.176C146.848 300.176 149.701 300.912 149.701 303.489C149.701 305.238 151.219 306.757 152.968 306.757C155.177 306.757 156.281 304.548 156.281 300.176C156.281 296.449 155.315 293.596 154.072 293.596C152.784 293.596 151.818 286.371 151.818 276.017V258.484H125.495V272.382ZM143.074 279.33V293.596H135.067C127.382 293.596 127.152 293.412 130.649 289.546C132.904 287.015 134.285 281.631 134.285 275.235C134.285 266.445 134.883 265.065 138.657 265.065C142.568 265.065 143.074 266.583 143.074 279.33Z" fill="#62BED5"/>
<path d="M93.4211 261.521C91.1202 264.329 91.1202 265.617 93.5131 267.872C95.9061 269.989 96.8264 269.989 97.7007 267.642C99.0353 263.868 104.327 263.684 106.536 267.366C107.456 268.884 106.26 271.691 103.913 273.348C99.7255 276.431 99.7255 276.569 103.913 279.652C106.49 281.493 107.687 284.3 106.858 286.555C105.202 290.743 98.2069 292.123 98.2069 288.166C98.2069 284.99 91.8565 285.221 89.8317 288.442C87.5309 292.215 95.1698 297.553 102.901 297.553C111.782 297.553 117.902 290.052 115.648 281.907C115.233 280.389 112.656 278.778 112.426 276.753C112.104 274.084 114.267 270.955 114.405 269.022C115.279 258.991 100.048 253.56 93.4211 261.521Z" fill="#62BED5"/>
<path d="M316.974 209.798C312.327 214.584 312.465 220.98 317.527 225.812C321.116 229.171 320.932 230.091 315.134 237.086L308.875 244.679L314.305 245.507C317.343 245.968 320.426 244.955 321.438 243.16C322.451 241.412 324.797 237.868 326.638 235.291C329.905 230.874 330.043 231.058 330.32 238.283C330.55 244.357 331.562 245.876 335.335 245.876C339.615 245.876 339.937 244.219 339.569 225.996L339.155 206.116H329.859C324.475 206.116 319.137 207.635 316.974 209.798ZM329.997 217.805C330.043 220.382 328.525 222.453 326.592 222.453C323.141 222.453 321.714 217.391 324.567 214.538C327.42 211.592 329.905 213.111 329.997 217.805Z" fill="#62BED5"/>
<path d="M283.566 206.254C274.592 211.684 270.313 229.217 276.157 236.764C282.369 244.725 296.266 248.452 303.077 244.081C307.817 240.952 303.767 234.785 297.739 235.982C290.744 237.316 282.415 232.76 282.323 227.606C282.093 216.378 295.53 208.785 300.5 217.345C302.571 220.796 303.031 220.474 304.412 214.63C305.562 209.982 305.056 207.359 302.709 205.886C298.245 203.079 288.674 203.263 283.566 206.254Z" fill="#62BED5"/>
<path d="M242.058 209.568C242.058 211.5 244.129 213.111 246.706 213.111C250.847 213.111 251.354 214.768 251.354 228.343C251.354 241.918 251.906 243.483 256.093 243.483C260.235 243.483 260.741 241.918 260.741 228.343C260.741 214.768 261.247 213.111 265.389 213.111C267.966 213.111 270.129 211.5 270.129 209.568C270.129 206.853 267.092 206.116 256.093 206.116C245.095 206.116 242.058 206.853 242.058 209.568Z" fill="#62BED5"/>
<path d="M217.438 245.875H228.161C237.502 245.875 238.883 245.369 238.883 241.964C238.883 238.835 237.548 238.052 232.072 238.052C226.596 238.052 225.261 237.316 225.261 234.141C225.261 231.15 226.596 230.275 231.106 230.275C235.938 230.275 236.95 229.447 236.95 225.352C236.95 221.302 235.938 220.52 231.106 220.52C227.194 220.52 225.261 219.553 225.261 217.621C225.261 215.596 227.378 214.63 232.072 214.63C237.548 214.63 238.883 213.893 238.883 210.764C238.883 207.359 237.502 206.899 228.161 206.899H217.438V245.875Z" fill="#62BED5"/>
<path d="M185.962 213.387C184.444 217.022 180.947 225.95 178.278 232.99L173.4 245.875H178.093C180.993 245.875 183.201 244.403 183.984 241.964C185.732 236.304 199.538 236.304 201.056 241.964C201.746 244.633 203.587 245.875 206.9 245.875H211.824L204.277 226.87C198.433 212.052 195.902 207.727 192.773 207.267C189.782 206.852 188.125 208.325 185.962 213.387ZM195.166 224.431C195.948 227.33 195.258 228.297 192.497 228.297C188.355 228.297 188.263 228.113 189.966 223.649C191.531 219.369 193.877 219.737 195.166 224.431Z" fill="#62BED5"/>
<path d="M139.485 225.996C139.485 244.219 139.945 245.876 144.179 245.876C147.952 245.876 148.872 244.219 148.872 237.638C148.872 230.414 149.517 229.447 154.717 229.447C159.871 229.447 160.515 230.414 160.515 237.638C160.515 244.219 161.481 245.876 165.255 245.876C169.534 245.876 169.902 244.219 169.902 225.996C169.902 207.727 169.534 206.116 165.255 206.116C161.481 206.116 160.515 207.727 160.515 214.307C160.515 221.532 159.871 222.453 154.717 222.453C149.517 222.453 148.872 221.532 148.872 214.307C148.872 207.727 147.952 206.116 144.179 206.116C139.945 206.116 139.485 207.727 139.485 225.996Z" fill="#62BED5"/>
<path d="M102.717 225.996C102.717 244.219 103.177 245.876 107.41 245.876C110.632 245.876 114.267 241.964 119.099 233.543L126.14 221.256V233.543C126.14 244.357 126.692 245.876 130.787 245.876C135.067 245.876 135.481 244.219 135.481 225.996C135.481 207.957 135.113 206.116 131.063 206.116C128.21 206.116 124.023 210.396 119.329 218.357L112.104 230.644V218.357C112.104 207.589 111.506 206.116 107.41 206.116C103.177 206.116 102.717 207.727 102.717 225.996Z" fill="#62BED5"/>
<path d="M68.4335 215.688C68.4335 226.686 71.2866 230.413 79.8458 230.413C85.506 230.413 86.0122 231.104 86.0122 238.144C86.0122 244.311 86.8865 245.875 90.4299 245.875C94.4794 245.875 94.8475 244.311 94.8475 226.042C94.8475 207.957 94.4334 206.208 90.5219 206.208C87.2086 206.208 86.1502 208.049 85.598 214.445C85.1839 219.968 83.8494 222.729 81.6405 222.729C79.4317 222.729 78.0972 219.968 77.683 214.445C77.1308 208.049 76.0264 206.208 72.7131 206.208C69.1237 206.208 68.4335 207.773 68.4335 215.688Z" fill="#62BED5"/>
<path d="M45.655 213.939C44.1364 217.529 40.6851 226.318 38.0621 233.221L33.2762 245.875H37.878C40.7311 245.875 42.9399 244.449 43.6762 242.056C45.4249 236.488 59.0001 236.488 60.4726 242.056C61.1629 244.679 62.9576 245.875 66.2248 245.875H71.0106L63.6478 227.192C57.8956 212.651 55.4107 208.417 52.3275 207.957C49.3824 207.543 47.7718 209.015 45.655 213.939ZM54.6744 224.799C55.4567 227.653 54.7664 228.619 52.0514 228.619C48.0019 228.619 47.9098 228.435 49.5665 224.017C51.1311 219.83 53.4319 220.198 54.6744 224.799Z" fill="#62BED5"/>
<path d="M0.695801 227.146C0.695801 244.311 1.15598 245.875 5.1595 245.875C8.70286 245.875 9.53117 244.311 9.53117 238.144C9.53117 231.334 10.1754 230.413 15.0533 230.413C19.8851 230.413 20.5294 231.334 20.5294 238.144C20.5294 244.311 21.4497 245.875 24.9931 245.875C28.9966 245.875 29.3647 244.311 29.3647 227.146C29.3647 209.982 28.9966 208.417 24.9931 208.417C21.4497 208.417 20.5294 209.982 20.5294 216.148C20.5294 222.959 19.8851 223.833 15.0533 223.833C10.1754 223.833 9.53117 222.959 9.53117 216.148C9.53117 209.982 8.70286 208.417 5.1595 208.417C1.15598 208.417 0.695801 209.982 0.695801 227.146Z" fill="#62BED5"/>
<path d="M223.789 142.888C221.81 146.109 226.734 149.054 230.369 146.846C233.314 144.959 231.566 140.541 227.838 140.541C226.366 140.541 224.571 141.554 223.789 142.888Z" fill="#62BED5"/>
<path d="M237.824 142.888C235.845 146.109 240.769 149.054 244.359 146.846C247.35 144.959 245.601 140.541 241.874 140.541C240.401 140.541 238.606 141.554 237.824 142.888Z" fill="#62BED5"/>
<path d="M223.099 194.152H234.833C244.865 194.152 246.522 193.6 246.522 189.964C246.522 186.743 244.865 185.777 239.481 185.777C234.097 185.777 232.486 184.81 232.486 181.589C232.486 178.368 234.097 177.401 239.481 177.401C245.325 177.401 246.522 176.481 246.522 172.109C246.522 167.738 245.325 166.909 239.481 166.909C234.833 166.909 232.486 165.897 232.486 163.78C232.486 161.663 234.833 160.605 239.481 160.605C244.865 160.605 246.522 159.639 246.522 156.417C246.522 152.828 244.865 152.276 234.833 152.276H223.099V194.152Z" fill="#62BED5"/>
<path d="M100.784 194.152H111.046C122.274 194.152 128.855 189.872 128.855 182.463C128.855 180.116 127.704 177.263 126.416 176.481C124.943 175.561 124.529 172.201 125.403 168.244C127.474 158.488 123.241 154.392 111.046 154.392H100.784V194.152ZM118.317 182.463C118.317 184.488 116.568 186.283 114.221 186.697C111.276 187.203 110.126 185.961 110.126 182.463C110.126 179.012 111.276 177.769 114.221 178.276C116.568 178.644 118.317 180.438 118.317 182.463ZM115.97 166.081C115.97 167.738 114.589 169.624 113.025 170.176C111.276 170.821 110.126 169.118 110.126 166.081C110.126 163.044 111.276 161.387 113.025 161.985C114.589 162.538 115.97 164.47 115.97 166.081Z" fill="#62BED5"/>
<path fill-rule="evenodd" clip-rule="evenodd" d="M203.541 186.145C213.941 180.116 201.931 172.661 193.555 176.757C189.828 178.69 192.681 180.392 188.309 181.819C182.097 183.844 172.663 185.224 167.555 184.396C152.002 181.957 141.509 177.033 141.509 170.453C141.509 166.541 143.764 163.826 149.977 160.835C155.867 157.982 148.136 152.46 142.798 155.359C133.41 160.421 131.662 164.24 131.662 169.992C131.662 175.284 136.816 182.417 145.099 186.237C150.207 188.584 164.794 192.541 174.734 192.495C191.577 192.403 197.789 189.504 203.541 186.145ZM192.497 158.994C196.316 159.731 202.207 161.295 203.725 164.01C205.198 166.587 210.674 174.824 215.736 165.897C217.116 161.019 207.407 153.38 197.053 152C190.104 151.079 186.008 157.338 192.497 158.994Z" fill="#62BED5"/>
<path fill-rule="evenodd" clip-rule="evenodd" d="M220.154 105.338C208.511 90.0601 190.288 65.6708 173.86 48.3222C164.61 38.4744 130.787 1.20018 114.543 3.59309C109.435 4.37539 107.18 7.73467 107.134 7.78069C108.653 9.1152 120.019 12.2904 126.784 17.5364C137.966 26.1417 149.01 36.1275 165.347 52.7398C182.971 70.6407 199.538 91.0264 209.8 105.2C218.681 117.487 222.592 123.193 224.433 121.674C230.047 117.026 223.559 109.756 220.154 105.338Z" fill="#FED03C"/>
<path fill-rule="evenodd" clip-rule="evenodd" d="M173.86 91.6708C169.258 85.2283 168.66 91.0725 166.497 95.3982C159.824 112.655 141.095 124.205 133.364 128.577C130.143 130.464 130.051 133.133 131.892 134.467C132.996 135.341 135.159 135.526 136.954 135.157C153.29 131.568 178.922 98.2513 173.86 91.6708Z" fill="#FED03C"/>
<path fill-rule="evenodd" clip-rule="evenodd" d="M146.387 16.2479C146.249 22.0001 152.094 22.5523 152.37 16.2019C152.6 9.89746 149.517 3.86916 145.513 4.78951C141.049 5.89393 146.618 8.28684 146.387 16.2479Z" fill="#62BED5"/>
<path fill-rule="evenodd" clip-rule="evenodd" d="M163.874 24.9911C165.991 18.3646 161.711 13.3947 159.502 14.131C158.352 14.4991 158.49 15.9717 159.042 19.9752C159.272 21.6318 158.536 24.715 158.766 25.5893C160.377 31.7097 162.494 29.3168 163.874 24.9911Z" fill="#62BED5"/>
<path fill-rule="evenodd" clip-rule="evenodd" d="M131.984 4.88149L135.757 7.7806C140.359 12.5204 140.865 5.38769 137.368 1.84434C135.987 0.46381 132.996 -0.502558 130.741 0.27974C127.612 1.33814 130.235 3.36292 131.984 4.88149Z" fill="#62BED5"/>
<path fill-rule="evenodd" clip-rule="evenodd" d="M170.409 37.3699C172.479 34.0106 172.755 29.7309 170.639 26.0956C168.66 22.7363 166.543 22.7363 166.727 26.5097C166.773 27.384 166.957 28.8106 166.911 31.8478C166.819 36.1274 166.037 35.023 166.497 36.2654C167.924 40.1769 168.108 41.1433 170.409 37.3699Z" fill="#62BED5"/>
<path fill-rule="evenodd" clip-rule="evenodd" d="M184.812 28.9028C203.265 41.2815 217.162 57.5717 229.173 77.3133C235.754 88.1734 238.008 93.6035 239.389 96.2725C242.426 102.071 245.233 97.1929 243.208 90.7504C237.916 73.954 212.837 31.5718 182.741 18.917C177.725 16.8002 176.621 20.2055 176.161 20.8497C175.056 22.5064 183.201 27.8444 184.812 28.9028Z" fill="#B0CB1F"/>
<path fill-rule="evenodd" clip-rule="evenodd" d="M183.293 49.0583C191.807 55.5927 196.731 60.3326 204.508 70.5945C209.385 76.9909 214.862 83.3413 219.325 90.7502C222.961 96.9165 224.709 102.024 227.7 108.007C229.541 111.688 235.339 109.985 233.959 104.739C233.407 102.531 232.578 100.506 231.152 97.5147C223.789 82.2369 210.536 64.3361 198.801 52.5096C196.593 50.2087 192.405 46.5273 187.941 42.8919C182.511 38.4742 177.127 37.0477 175.747 37.922C174.412 38.7043 177.633 44.1804 183.293 49.0583Z" fill="#B0CB1F"/>
<path fill-rule="evenodd" clip-rule="evenodd" d="M207.315 16.9839C201.931 13.7627 198.479 10.7716 194.614 9.02291C191.439 7.64238 187.297 9.29901 186.607 10.2654C186.055 11.0477 185.686 11.83 189.736 14.499C200.458 21.5397 220.798 33.3662 237.686 60.8387C243.162 70.9165 244.129 71.6528 247.442 78.6475C249.605 83.1572 251.077 82.9731 252.09 81.5466C253.286 79.8439 253.746 76.1625 252.918 73.2174L243.439 55.3166C236.536 43.9042 217.531 23.0122 207.315 16.9839Z" fill="#B0CB1F"/>
<path fill-rule="evenodd" clip-rule="evenodd" d="M229.771 28.2585C229.633 32.4461 233.453 32.17 236.858 26.1417C240.954 18.8709 238.192 9.75942 232.67 8.37889C229.173 6.49217 229.127 9.89747 230.139 12.1063C235.155 23.3806 230.093 19.4231 229.771 28.2585Z" fill="#B0CB1F"/>
<path fill-rule="evenodd" clip-rule="evenodd" d="M243.669 40.315C246.66 36.9097 249.835 30.0991 249.467 24.577C249.283 21.2638 247.442 18.4567 244.543 17.0302C240.953 23.2425 245.877 20.5275 243.484 28.9947C242.978 30.6974 238.653 36.4956 238.515 37.4159C237.64 42.708 240.493 43.8584 243.669 40.315Z" fill="#FED03C"/>
<path fill-rule="evenodd" clip-rule="evenodd" d="M224.433 18.8247C225.446 14.0388 224.479 7.41232 220.752 4.4672C217.531 1.93623 214.355 2.71853 213.757 4.09906C213.251 5.20348 214.954 6.39993 215.414 8.60878L217.07 17.168C218.451 21.4937 222.823 26.2335 224.433 18.8247Z" fill="#FED03C"/>
<path fill-rule="evenodd" clip-rule="evenodd" d="M254.068 36.1273C250.433 38.3822 251.353 40.2689 249.973 43.8123C247.764 48.46 245.049 48.5981 245.509 52.9697C246.199 59.7803 250.663 51.9113 252.734 49.7945C255.357 47.1255 257.152 41.2813 254.068 36.1273Z" fill="#FED03C"/>
<path fill-rule="evenodd" clip-rule="evenodd" d="M141.97 141.922C143.028 144.775 147.354 144.131 151.127 141.646C161.297 134.881 173.17 123.055 177.449 113.759C178.738 109.571 174.182 106.718 171.881 111.55C169.074 117.809 156.005 130.463 146.802 136.216C141.095 139.759 141.74 141.278 141.97 141.922Z" fill="#B0CB1F"/>
<path fill-rule="evenodd" clip-rule="evenodd" d="M179.06 123.515C169.718 136.538 162.171 142.566 156.925 146.339C152.001 149.883 155.913 155.635 161.895 151.77C168.292 147.628 181.959 133.04 183.984 128.991C188.861 119.189 182.557 117.164 179.06 123.515Z" fill="#B0CB1F"/>
<path fill-rule="evenodd" clip-rule="evenodd" d="M179.29 146.155C175.746 148.594 171.467 151.539 168.338 153.15C162.355 156.233 165.531 160.973 171.513 158.534C175.24 157.062 180.348 154.347 185.088 150.389C189.184 146.984 193.601 143.716 195.442 138.931C198.065 132.028 191.07 129.497 189.046 134.053C186.745 139.161 181.545 144.085 179.29 146.155Z" fill="#B0CB1F"/>
<path fill-rule="evenodd" clip-rule="evenodd" d="M100.554 16.8921C102.855 18.2727 105.616 19.6992 107.733 20.3895C111.782 21.678 110.77 17.6284 109.573 16.8001C107.088 14.4072 102.303 12.3824 101.52 12.4745C99.3115 12.7966 97.6089 15.0975 100.554 16.8921Z" fill="#62BED5"/>
<path fill-rule="evenodd" clip-rule="evenodd" d="M116.66 26.832C118.823 28.4427 121.446 30.0533 123.517 30.9276C127.428 32.5382 126.784 28.3966 125.633 27.4763C123.332 24.8993 118.731 22.5064 117.948 22.5524C115.74 22.6444 113.853 24.8073 116.66 26.832Z" fill="#62BED5"/>
<path fill-rule="evenodd" clip-rule="evenodd" d="M131.156 36.9557C132.812 38.4743 134.791 40.0389 136.448 40.9592C139.531 42.6619 139.347 39.1645 138.518 38.3362C136.862 35.9433 133.272 33.5504 132.628 33.5044C130.787 33.4123 129.039 35.0229 131.156 36.9557Z" fill="#62BED5"/>
<path fill-rule="evenodd" clip-rule="evenodd" d="M145.191 49.5646C146.986 51.5893 149.149 53.7522 150.989 55.0867C154.441 57.5256 154.717 53.338 153.842 52.1876C152.14 49.1504 148.182 45.7911 147.446 45.6531C145.237 45.2849 142.936 46.9416 145.191 49.5646Z" fill="#62BED5"/>
<path fill-rule="evenodd" clip-rule="evenodd" d="M157.938 63.7838C159.732 65.8086 161.895 67.9714 163.736 69.3059C167.187 71.7449 167.463 67.5573 166.589 66.4529C164.886 63.3697 160.929 60.0104 160.147 59.8723C157.984 59.5042 155.637 61.2069 157.938 63.7838Z" fill="#62BED5"/>
<path fill-rule="evenodd" clip-rule="evenodd" d="M170.869 77.8194C172.663 79.8441 174.826 82.007 176.667 83.3415C180.118 85.7804 180.394 81.5928 179.52 80.4424C177.817 77.4052 173.86 74.0459 173.124 73.9079C170.915 73.5397 168.614 75.2424 170.869 77.8194Z" fill="#62BED5"/>
<path fill-rule="evenodd" clip-rule="evenodd" d="M184.996 94.0637C186.699 96.1805 188.724 98.4813 190.518 99.9079C193.785 102.531 194.292 98.3893 193.509 97.1929C191.991 94.0637 188.217 90.4743 187.481 90.2902C185.318 89.784 182.879 91.3026 184.996 94.0637Z" fill="#62BED5"/>
<path fill-rule="evenodd" clip-rule="evenodd" d="M198.387 111.182C200.09 113.345 202.115 115.6 203.909 117.026C207.177 119.695 207.683 115.508 206.9 114.311C205.382 111.182 201.608 107.593 200.872 107.409C198.709 106.902 196.27 108.467 198.387 111.182Z" fill="#62BED5"/>
<path fill-rule="evenodd" clip-rule="evenodd" d="M210.03 125.034C211.686 127.196 211.548 127.426 213.343 128.853C216.61 131.522 217.577 126.644 216.748 125.448C215.23 122.318 213.205 121.444 212.469 121.26C210.306 120.754 207.913 122.318 210.03 125.034Z" fill="#62BED5"/>
<path fill-rule="evenodd" clip-rule="evenodd" d="M129.085 118.039C126.692 119.281 124.069 120.846 122.366 122.318C119.145 125.079 123.149 126.368 124.437 125.77C127.796 124.849 132.03 121.858 132.352 121.122C133.226 119.097 132.168 116.428 129.085 118.039Z" fill="#62BED5"/>
<path fill-rule="evenodd" clip-rule="evenodd" d="M143.718 106.58C141.602 108.283 139.347 110.354 137.966 112.148C135.389 115.508 139.531 115.922 140.727 115.093C143.811 113.529 147.354 109.709 147.538 108.973C147.998 106.764 146.388 104.417 143.718 106.58Z" fill="#62BED5"/>
<path fill-rule="evenodd" clip-rule="evenodd" d="M154.579 92.775C152.83 94.8458 151.035 97.3308 150.023 99.3556C148.136 103.129 152.324 102.761 153.336 101.702C156.051 99.5856 158.766 95.1219 158.812 94.3857C158.812 92.1308 156.833 90.106 154.579 92.775Z" fill="#62BED5"/>
<path fill-rule="evenodd" clip-rule="evenodd" d="M161.481 80.7184C160.331 83.1573 160.009 84.2157 159.502 86.4246C158.628 90.5661 162.586 89.1856 163.276 87.8971C165.393 85.1361 165.669 82.9272 165.485 82.191C164.932 79.9821 163 77.5892 161.481 80.7184Z" fill="#62BED5"/>
<path fill-rule="evenodd" clip-rule="evenodd" d="M133.318 76.9911C123.379 95.3061 111.966 96.0884 104.419 99.8159C98.8052 102.623 99.4955 107.961 107.779 106.626C117.396 105.108 131.57 91.8088 135.757 86.0106C146.203 71.6531 138.472 71.1929 138.426 71.0549C134.929 70.1345 134.515 74.5982 133.318 76.9911Z" fill="#62BED5"/>
<path fill-rule="evenodd" clip-rule="evenodd" d="M122.412 66.6371C118.961 72.9875 114.497 76.3008 110.816 79.2919C101.935 86.5167 94.0195 87.299 89.8319 92.4069C95.7682 100.552 118.639 83.1114 123.885 75.8866C133.825 62.1734 128.993 61.161 127.06 61.253C123.517 61.4371 123.517 64.4743 122.412 66.6371Z" fill="#62BED5"/>
<path fill-rule="evenodd" clip-rule="evenodd" d="M111.828 57.5256C102.533 74.6902 93.0991 72.8495 86.9788 77.3592C82.5151 80.6725 87.577 83.2955 90.108 82.7432C98.4371 80.9946 110.724 70.7787 114.129 66.1309C122.872 54.0743 116.016 52.8779 115.97 52.7858C113.347 52.5557 112.749 55.6849 111.828 57.5256Z" fill="#62BED5"/>
<path fill-rule="evenodd" clip-rule="evenodd" d="M98.115 44.6406C101.98 47.1716 103.775 52.4176 106.95 54.4884C108.147 55.3167 111.874 55.4087 109.942 51.1291C106.168 42.846 94.2495 35.161 88.2212 35.2991C86.1044 35.4831 83.4814 38.1522 87.577 40.223C92.0867 42.4318 96.8725 43.8583 98.115 44.6406Z" fill="#B0CB1F"/>
<path fill-rule="evenodd" clip-rule="evenodd" d="M101.474 62.1274C102.671 62.9097 106.628 61.5752 103.591 57.9398C100.968 54.7646 100.048 52.9239 94.8017 49.9788C91.5344 48.1381 88.0371 47.954 85.6902 48C83.5734 48.1841 80.9964 50.8991 85.092 52.9239C87.3008 54.0283 89.8318 54.1204 91.7185 54.9027C95.768 56.5593 95.9521 58.492 101.474 62.1274Z" fill="#B0CB1F"/>
<path fill-rule="evenodd" clip-rule="evenodd" d="M96.1362 65.3946C95.1238 64.2441 94.2955 63.7379 91.3044 62.0353C88.7734 60.6087 86.0584 60.4707 84.2637 60.5167C82.6071 60.6548 80.3982 63.4618 83.5734 65.0264C85 65.7167 88.9575 67.0052 90.1999 67.9716C95.8141 72.3892 99.0353 68.7078 96.1362 65.3946Z" fill="#B0CB1F"/>
<path fill-rule="evenodd" clip-rule="evenodd" d="M202.299 3.82317C198.341 3.50105 199.63 6.63024 201.47 8.28687C203.541 10.2196 209.339 15.3736 209.201 9.3913C209.017 3.73114 203.541 3.6391 202.299 3.82317Z" fill="#FED03C"/>
<path fill-rule="evenodd" clip-rule="evenodd" d="M257.612 56.7892C257.474 52.8777 254.529 54.4883 253.102 56.4671C251.399 58.768 246.936 65.1184 252.872 64.2901C258.44 63.5078 257.934 58.0317 257.612 56.7892Z" fill="#FED03C"/>
<path fill-rule="evenodd" clip-rule="evenodd" d="M201.608 124.941C194.154 115.232 183.524 102.439 172.433 89.922C171.927 89.3698 171.191 90.7964 170.685 90.2442L168.706 94.8459C178.278 104.878 186.837 114.403 192.727 122.594C201.608 134.881 203.955 141.462 205.796 139.943C211.41 135.295 205.014 129.405 201.608 124.941ZM147.262 62.9097C127.014 42.4779 109.435 28.9948 107.457 28.0744C92.3628 19.6072 92.1327 20.4355 90.8442 24.6231C86.8407 29.9612 92.5468 29.2249 102.993 36.6797C114.957 45.193 130.465 55.777 146.802 72.3433L148.872 74.5062C140.911 102.071 109.665 113.989 109.435 114.633C110.954 115.508 110.954 118.177 112.933 118.085C127.75 117.441 157.248 86.8849 156.557 74.4601C156.327 70.8708 149.885 65.5787 147.262 62.9097Z" fill="#FED03C"/>
</svg>
