<svg width="1366" height="165" viewBox="0 0 1366 165" fill="none" xmlns="http://www.w3.org/2000/svg">
<path fill-rule="evenodd" clip-rule="evenodd" d="M0 6.31039C174.361 -28.1107 544.526 102.625 915.427 101.613C1013.49 101.337 1111.65 83.896 1206.26 61.1633C1260.19 48.2324 1315.92 37.8324 1366.68 14.9617C1366.68 123.931 1366.68 -51.3956 1366.68 30.7917C1317.44 43.2625 1268.47 59.9669 1212.47 73.542C1132.68 92.8694 1042.99 118.961 914.553 119.053C810.323 119.099 698.592 106.583 592.798 94.0659C404.908 71.7934 169.345 -4.54975 0 25.9139C0 6.77057 0.460176 33.8289 0 7.69092V6.31039Z" fill="#FED03C"/>
<path fill-rule="evenodd" clip-rule="evenodd" d="M1366.68 114.728C1192.36 140.406 822.15 42.9405 451.248 43.7228C353.139 43.9529 255.029 56.9299 160.417 73.8183C106.485 83.482 50.7574 91.259 0 108.285V96.505C49.2388 87.2094 98.2015 74.7387 154.205 64.6148C233.999 50.2113 323.687 30.7919 452.122 30.6999C556.352 30.6539 668.083 39.9954 773.877 49.337C961.767 65.9033 1197.33 122.827 1366.68 100.14C1366.68 114.636 1366.22 93.5138 1366.68 114.728Z" fill="#B0CB1F"/>
<path fill-rule="evenodd" clip-rule="evenodd" d="M0 122.643C174.775 147.768 544.25 50.7174 914.415 51.4997C1012.52 51.6838 1110.63 64.6607 1205.25 81.5952C1259.18 91.2589 1314.95 99.0358 1365.71 116.016C1365.71 34.8413 1365.71 165.485 1365.71 104.236C1316.47 94.9403 1267.46 82.5155 1211.46 72.3917C1131.66 57.9882 1041.98 38.5227 913.54 38.4767C809.311 38.4307 697.58 47.7723 591.786 57.1138C404.31 73.6341 169.299 130.328 0 108.009V122.643Z" fill="#62BED5"/>
<path fill-rule="evenodd" clip-rule="evenodd" d="M1365.71 159.227C1191.35 193.648 821.137 62.8659 450.236 63.9243C352.172 64.2004 254.017 81.6411 159.405 104.328C105.84 117.213 50.4813 127.567 0 150.069V134.469C48.8706 122.044 97.6032 105.432 153.192 91.995C232.987 72.6216 322.675 46.5757 451.11 46.4837C555.34 46.3916 667.07 58.9084 772.865 71.4712C960.754 93.6977 1196.32 170.041 1365.66 139.623C1365.66 159.089 1365.2 130.742 1365.71 159.227Z" fill="#FED03C"/>
<path fill-rule="evenodd" clip-rule="evenodd" d="M0 50.6253C174.775 25.5457 544.25 122.597 914.415 121.814C1012.52 121.584 1110.63 108.607 1205.25 91.673C1259.18 82.0093 1314.95 74.2783 1365.71 57.2518C1365.71 138.473 1365.71 7.78296 1365.71 69.0323C1316.47 78.3279 1267.46 90.7986 1211.46 100.876C1131.66 115.28 1041.98 134.745 913.54 134.791C809.311 134.837 697.58 125.542 591.786 116.2C404.31 99.634 169.299 42.9404 0 65.2589V50.6253Z" fill="#B0CB1F"/>
<path fill-rule="evenodd" clip-rule="evenodd" d="M1366.68 43.0323C1192.36 17.4005 822.15 114.82 451.248 114.037C353.139 113.853 255.029 100.83 160.417 83.9419C106.485 74.2782 50.7574 66.5012 0 49.4748V61.2552C49.2388 70.5508 98.2015 83.0215 154.205 93.1454C233.999 107.549 323.687 126.968 452.122 127.06C556.352 127.106 668.083 117.765 773.877 108.423C961.767 91.8569 1197.33 34.9332 1366.68 57.6199C1366.68 43.1243 1366.22 64.2464 1366.68 43.0323Z" fill="#62BED5"/>
</svg>
